<svg width="187" height="55" viewBox="0 0 187 55" fill="none" xmlns="http://www.w3.org/2000/svg">
<path d="M0.75 6.875C0.75 3.07804 3.82804 0 7.625 0H179.5C183.297 0 186.375 3.07804 186.375 6.875V48.125C186.375 51.922 183.297 55 179.5 55H7.625C3.82804 55 0.75 51.922 0.75 48.125V6.875Z" fill="black"/>
<path d="M94.4369 29.9075C91.2029 29.9075 88.567 32.3673 88.567 35.7553C88.567 39.1227 91.2029 41.6032 94.4369 41.6032C97.6722 41.6032 100.308 39.1227 100.308 35.7553C100.307 32.3673 97.6709 29.9075 94.4369 29.9075ZM94.4369 39.3015C92.6645 39.3015 91.1369 37.8398 91.1369 35.7567C91.1369 33.6516 92.6659 32.212 94.4369 32.212C96.2092 32.212 97.7369 33.6516 97.7369 35.7567C97.7369 37.8385 96.2092 39.3015 94.4369 39.3015ZM81.6301 29.9075C78.3961 29.9075 75.7602 32.3673 75.7602 35.7553C75.7602 39.1227 78.3961 41.6032 81.6301 41.6032C84.8655 41.6032 87.5014 39.1227 87.5014 35.7553C87.5014 32.3673 84.8655 29.9075 81.6301 29.9075ZM81.6301 39.3015C79.8577 39.3015 78.3301 37.8398 78.3301 35.7567C78.3301 33.6516 79.8591 32.212 81.6301 32.212C83.4025 32.212 84.9301 33.6516 84.9301 35.7567C84.9315 37.8385 83.4025 39.3015 81.6301 39.3015ZM66.3979 31.7032V34.1837H72.3351C72.1577 35.5793 71.693 36.5982 70.9835 37.3063C70.12 38.1698 68.7684 39.1227 66.3979 39.1227C62.7431 39.1227 59.8859 36.1761 59.8859 32.5213C59.8859 28.8666 62.7431 25.92 66.3979 25.92C68.3696 25.92 69.8092 26.6955 70.8721 27.6923L72.6225 25.942C71.1375 24.5243 69.1671 23.4395 66.3979 23.4395C61.3915 23.4395 57.1826 27.515 57.1826 32.5213C57.1826 37.5277 61.3915 41.6032 66.3979 41.6032C69.0997 41.6032 71.1389 40.7163 72.7325 39.0553C74.3715 37.4163 74.8816 35.1118 74.8816 33.2515C74.8816 32.6767 74.8376 32.1446 74.7482 31.7018H66.3979V31.7032ZM128.696 33.6296C128.21 32.3233 126.725 29.9075 123.69 29.9075C120.677 29.9075 118.173 32.278 118.173 35.7553C118.173 39.0333 120.655 41.6032 123.977 41.6032C126.657 41.6032 128.208 39.9642 128.852 39.0113L126.858 37.6817C126.194 38.6566 125.285 39.2987 123.977 39.2987C122.671 39.2987 121.74 38.7006 121.142 37.5263L128.962 34.2923L128.696 33.6296ZM120.721 35.5793C120.655 33.3188 122.472 32.168 123.779 32.168C124.798 32.168 125.662 32.6781 125.95 33.4082L120.721 35.5793ZM114.365 41.2498H116.933V24.061H114.365V41.2498ZM110.154 31.2151H110.066C109.49 30.5276 108.382 29.9075 106.988 29.9075C104.063 29.9075 101.383 32.4773 101.383 35.7787C101.383 39.0567 104.063 41.6046 106.988 41.6046C108.383 41.6046 109.49 40.9845 110.066 40.2763H110.154V41.1178C110.154 43.355 108.958 44.5512 107.032 44.5512C105.459 44.5512 104.484 43.4223 104.085 42.4695L101.848 43.4003C102.49 44.95 104.195 46.8557 107.032 46.8557C110.044 46.8557 112.592 45.0833 112.592 40.7631V30.2636H110.156V31.2151H110.154ZM107.209 39.3015C105.437 39.3015 103.953 37.8165 103.953 35.7787C103.953 33.7176 105.437 32.212 107.209 32.212C108.958 32.212 110.332 33.7176 110.332 35.7787C110.332 37.8165 108.958 39.3015 107.209 39.3015ZM140.733 24.061H134.585V41.2498H137.15V34.7378H140.732C143.575 34.7378 146.372 32.6795 146.372 29.4001C146.372 26.1207 143.577 24.061 140.733 24.061ZM140.799 32.3453H137.15V26.4535H140.799C142.717 26.4535 143.806 28.0416 143.806 29.4001C143.806 30.7311 142.717 32.3453 140.799 32.3453ZM156.656 29.8772C154.798 29.8772 152.874 30.6953 152.078 32.509L154.355 33.4591C154.842 32.509 155.749 32.1982 156.7 32.1982C158.026 32.1982 159.375 32.9943 159.397 34.4092V34.5866C158.933 34.3212 157.937 33.9238 156.722 33.9238C154.267 33.9238 151.767 35.2727 151.767 37.7931C151.767 40.0935 153.78 41.5743 156.035 41.5743C157.76 41.5743 158.711 40.8002 159.308 39.8927H159.396V41.2196H161.874V34.6292C161.875 31.5795 159.595 29.8772 156.656 29.8772ZM156.345 39.2973C155.506 39.2973 154.333 38.8766 154.333 37.8371C154.333 36.5102 155.793 36.0015 157.054 36.0015C158.18 36.0015 158.713 36.2448 159.397 36.5762C159.198 38.1698 157.827 39.2973 156.345 39.2973ZM170.896 30.2526L167.955 37.7051H167.867L164.815 30.2526H162.051L166.629 40.6682L164.019 46.4625H166.694L173.75 30.2526H170.896ZM147.788 41.2498H150.353V24.061H147.788V41.2498Z" fill="white"/>
<path d="M65.9501 14.0841C65.9501 15.2364 65.6091 16.1535 64.9257 16.8383C64.1502 17.6523 63.1383 18.0593 61.8953 18.0593C60.7045 18.0593 59.6911 17.6468 58.8593 16.8218C58.026 15.9954 57.6094 14.9724 57.6094 13.7514C57.6094 12.529 58.026 11.506 58.8593 10.681C59.6911 9.85464 60.7045 9.44214 61.8953 9.44214C62.4865 9.44214 63.0516 9.55764 63.5879 9.78726C64.1255 10.0183 64.5559 10.3249 64.8776 10.7085L64.153 11.4345C63.6071 10.7814 62.855 10.4555 61.8939 10.4555C61.0249 10.4555 60.2741 10.7608 59.6402 11.3713C59.0064 11.9818 58.6901 12.7751 58.6901 13.75C58.6901 14.7249 59.0064 15.5183 59.6402 16.1288C60.2741 16.7393 61.0249 17.0445 61.8939 17.0445C62.8151 17.0445 63.5837 16.7379 64.1984 16.1233C64.5971 15.7231 64.8281 15.1663 64.89 14.4526H61.8939V13.4613H65.891C65.9322 13.6771 65.9501 13.8848 65.9501 14.0841Z" fill="white"/>
<path d="M72.289 10.6385H68.5325V13.2537H71.9205V14.2451H68.5325V16.8603H72.289V17.8751H67.4724V9.62509H72.289V10.6385Z" fill="white"/>
<path d="M76.759 17.8751H75.6989V10.6385H73.3943V9.62509H79.0635V10.6385H76.759V17.8751Z" fill="white"/>
<path d="M83.165 17.8751V9.62509H84.2252V17.8751H83.165Z" fill="white"/>
<path d="M88.9265 17.8751H87.8664V10.6385H85.5619V9.62509H91.231V10.6385H88.9265V17.8751Z" fill="white"/>
<path d="M101.963 16.8095C101.151 17.6427 100.143 18.0593 98.9376 18.0593C97.7317 18.0593 96.7238 17.6427 95.914 16.8095C95.1027 15.9762 94.6984 14.956 94.6984 13.7501C94.6984 12.5442 95.1027 11.524 95.914 10.6907C96.7238 9.85745 97.7317 9.43945 98.9376 9.43945C100.137 9.43945 101.143 9.85883 101.957 10.6962C102.771 11.5336 103.178 12.5511 103.178 13.7501C103.178 14.956 102.772 15.9762 101.963 16.8095ZM96.6963 16.1178C97.3068 16.7366 98.0535 17.0446 98.9376 17.0446C99.8217 17.0446 100.57 16.7352 101.179 16.1178C101.789 15.4991 102.096 14.7098 102.096 13.7501C102.096 12.7903 101.789 12.0011 101.179 11.3823C100.57 10.7636 99.8217 10.4556 98.9376 10.4556C98.0535 10.4556 97.3068 10.765 96.6963 11.3823C96.0872 12.0011 95.7806 12.7903 95.7806 13.7501C95.7806 14.7098 96.0872 15.4991 96.6963 16.1178Z" fill="white"/>
<path d="M104.666 17.8751V9.62509H105.956L109.965 16.0422H110.01L109.965 14.4527V9.62509H111.025V17.8751H109.918L105.723 11.1458H105.678L105.723 12.7353V17.8751H104.666Z" fill="white"/>
<path d="M65.9501 14.0841C65.9501 15.2364 65.6091 16.1535 64.9257 16.8383C64.1502 17.6523 63.1383 18.0593 61.8953 18.0593C60.7045 18.0593 59.6911 17.6468 58.8593 16.8218C58.026 15.9954 57.6094 14.9724 57.6094 13.7514C57.6094 12.529 58.026 11.506 58.8593 10.681C59.6911 9.85464 60.7045 9.44214 61.8953 9.44214C62.4865 9.44214 63.0516 9.55764 63.5879 9.78726C64.1255 10.0183 64.5559 10.3249 64.8776 10.7085L64.153 11.4345C63.6071 10.7814 62.855 10.4555 61.8939 10.4555C61.0249 10.4555 60.2741 10.7608 59.6402 11.3713C59.0064 11.9818 58.6901 12.7751 58.6901 13.75C58.6901 14.7249 59.0064 15.5183 59.6402 16.1288C60.2741 16.7393 61.0249 17.0445 61.8939 17.0445C62.8151 17.0445 63.5837 16.7379 64.1984 16.1233C64.5971 15.7231 64.8281 15.1663 64.89 14.4526H61.8939V13.4613H65.891C65.9322 13.6771 65.9501 13.8848 65.9501 14.0841Z" stroke="white" stroke-width="0.275" stroke-miterlimit="10"/>
<path d="M72.289 10.6385H68.5325V13.2537H71.9205V14.2451H68.5325V16.8603H72.289V17.8751H67.4724V9.62509H72.289V10.6385Z" stroke="white" stroke-width="0.275" stroke-miterlimit="10"/>
<path d="M76.759 17.8751H75.6989V10.6385H73.3943V9.62509H79.0635V10.6385H76.759V17.8751Z" stroke="white" stroke-width="0.275" stroke-miterlimit="10"/>
<path d="M83.165 17.8751V9.62509H84.2252V17.8751H83.165Z" stroke="white" stroke-width="0.275" stroke-miterlimit="10"/>
<path d="M88.9265 17.8751H87.8664V10.6385H85.5619V9.62509H91.231V10.6385H88.9265V17.8751Z" stroke="white" stroke-width="0.275" stroke-miterlimit="10"/>
<path d="M101.963 16.8095C101.151 17.6427 100.143 18.0593 98.9376 18.0593C97.7317 18.0593 96.7238 17.6427 95.914 16.8095C95.1027 15.9762 94.6984 14.956 94.6984 13.7501C94.6984 12.5442 95.1027 11.524 95.914 10.6907C96.7238 9.85745 97.7317 9.43945 98.9376 9.43945C100.137 9.43945 101.143 9.85883 101.957 10.6962C102.771 11.5336 103.178 12.5511 103.178 13.7501C103.178 14.956 102.772 15.9762 101.963 16.8095ZM96.6963 16.1178C97.3068 16.7366 98.0535 17.0446 98.9376 17.0446C99.8217 17.0446 100.57 16.7352 101.179 16.1178C101.789 15.4991 102.096 14.7098 102.096 13.7501C102.096 12.7903 101.789 12.0011 101.179 11.3823C100.57 10.7636 99.8217 10.4556 98.9376 10.4556C98.0535 10.4556 97.3068 10.765 96.6963 11.3823C96.0872 12.0011 95.7806 12.7903 95.7806 13.7501C95.7806 14.7098 96.0872 15.4991 96.6963 16.1178Z" stroke="white" stroke-width="0.275" stroke-miterlimit="10"/>
<path d="M104.666 17.8751V9.62509H105.956L109.965 16.0422H110.01L109.965 14.4527V9.62509H111.025V17.8751H109.918L105.723 11.1458H105.678L105.723 12.7353V17.8751H104.666Z" stroke="white" stroke-width="0.275" stroke-miterlimit="10"/>
<g filter="url(#filter0_ii)">
<path d="M15.0995 10.3655C14.6994 10.789 14.4629 11.4463 14.4629 12.2974V42.7069C14.4629 43.5594 14.6994 44.2153 15.0995 44.6388L15.2013 44.7378L32.2361 27.7029V27.5021V27.3014L15.2013 10.2651L15.0995 10.3655Z" fill="url(#paint0_linear)"/>
<path d="M37.9137 33.3824L32.2363 27.7023V27.5016V27.3008L37.9151 21.6221L38.043 21.6949L44.7708 25.5174C46.6917 26.6092 46.6917 28.3953 44.7708 29.4884L38.043 33.3109L37.9137 33.3824Z" fill="url(#paint1_linear)"/>
<g filter="url(#filter1_i)">
<path d="M38.0429 33.3095L32.2349 27.5015L15.0996 44.6381C15.7321 45.3091 16.7785 45.3916 17.9569 44.7233L38.0429 33.3095Z" fill="url(#paint2_linear)"/>
</g>
<path d="M38.0429 21.6939L17.9569 10.2814C16.7785 9.61181 15.7321 9.69569 15.0996 10.3667L32.2362 27.5033L38.0429 21.6939Z" fill="url(#paint3_linear)"/>
</g>
<path d="M7.625 1.375H179.5V-1.375H7.625V1.375ZM185 6.875V48.125H187.75V6.875H185ZM179.5 53.625H7.625V56.375H179.5V53.625ZM2.125 48.125V6.875H-0.625V48.125H2.125ZM7.625 53.625C4.58743 53.625 2.125 51.1626 2.125 48.125H-0.625C-0.625 52.6813 3.06865 56.375 7.625 56.375V53.625ZM185 48.125C185 51.1626 182.538 53.625 179.5 53.625V56.375C184.056 56.375 187.75 52.6814 187.75 48.125H185ZM179.5 1.375C182.538 1.375 185 3.83743 185 6.875H187.75C187.75 2.31865 184.056 -1.375 179.5 -1.375V1.375ZM7.625 -1.375C3.06865 -1.375 -0.625 2.31865 -0.625 6.875H2.125C2.125 3.83743 4.58743 1.375 7.625 1.375V-1.375Z" fill="#A6A6A6"/>
<defs>
<filter id="filter0_ii" x="14.4629" y="9.81934" width="31.7486" height="35.3656" filterUnits="userSpaceOnUse" color-interpolation-filters="sRGB">
<feFlood flood-opacity="0" result="BackgroundImageFix"/>
<feBlend mode="normal" in="SourceGraphic" in2="BackgroundImageFix" result="shape"/>
<feColorMatrix in="SourceAlpha" type="matrix" values="0 0 0 0 0 0 0 0 0 0 0 0 0 0 0 0 0 0 127 0" result="hardAlpha"/>
<feOffset dy="-0.20625"/>
<feComposite in2="hardAlpha" operator="arithmetic" k2="-1" k3="1"/>
<feColorMatrix type="matrix" values="0 0 0 0 0 0 0 0 0 0 0 0 0 0 0 0 0 0 0.12 0"/>
<feBlend mode="normal" in2="shape" result="effect1_innerShadow"/>
<feColorMatrix in="SourceAlpha" type="matrix" values="0 0 0 0 0 0 0 0 0 0 0 0 0 0 0 0 0 0 127 0" result="hardAlpha"/>
<feOffset dy="0.20625"/>
<feComposite in2="hardAlpha" operator="arithmetic" k2="-1" k3="1"/>
<feColorMatrix type="matrix" values="0 0 0 0 1 0 0 0 0 1 0 0 0 0 1 0 0 0 0.25 0"/>
<feBlend mode="normal" in2="effect1_innerShadow" result="effect2_innerShadow"/>
</filter>
<filter id="filter1_i" x="15.0996" y="27.5015" width="22.9432" height="17.6834" filterUnits="userSpaceOnUse" color-interpolation-filters="sRGB">
<feFlood flood-opacity="0" result="BackgroundImageFix"/>
<feBlend mode="normal" in="SourceGraphic" in2="BackgroundImageFix" result="shape"/>
<feColorMatrix in="SourceAlpha" type="matrix" values="0 0 0 0 0 0 0 0 0 0 0 0 0 0 0 0 0 0 127 0" result="hardAlpha"/>
<feOffset dy="-0.20625"/>
<feComposite in2="hardAlpha" operator="arithmetic" k2="-1" k3="1"/>
<feColorMatrix type="matrix" values="0 0 0 0 0 0 0 0 0 0 0 0 0 0 0 0 0 0 0.08 0"/>
<feBlend mode="normal" in2="shape" result="effect1_innerShadow"/>
</filter>
<linearGradient id="paint0_linear" x1="30.7261" y1="11.9756" x2="7.65087" y2="35.0509" gradientUnits="userSpaceOnUse">
<stop stop-color="#00A0FF"/>
<stop offset="0.0066" stop-color="#00A1FF"/>
<stop offset="0.2601" stop-color="#00BEFF"/>
<stop offset="0.5122" stop-color="#00D2FF"/>
<stop offset="0.7604" stop-color="#00DFFF"/>
<stop offset="1" stop-color="#00E3FF"/>
</linearGradient>
<linearGradient id="paint1_linear" x1="47.2713" y1="27.5016" x2="14.0019" y2="27.5016" gradientUnits="userSpaceOnUse">
<stop stop-color="#FFE000"/>
<stop offset="0.4087" stop-color="#FFBD00"/>
<stop offset="0.7754" stop-color="#FFA500"/>
<stop offset="1" stop-color="#FF9C00"/>
</linearGradient>
<linearGradient id="paint2_linear" x1="34.8887" y1="30.6556" x2="3.59581" y2="61.9485" gradientUnits="userSpaceOnUse">
<stop stop-color="#FF3A44"/>
<stop offset="1" stop-color="#C31162"/>
</linearGradient>
<linearGradient id="paint3_linear" x1="10.784" y1="0.243666" x2="24.7572" y2="14.2168" gradientUnits="userSpaceOnUse">
<stop stop-color="#32A071"/>
<stop offset="0.0685" stop-color="#2DA771"/>
<stop offset="0.4762" stop-color="#15CF74"/>
<stop offset="0.8009" stop-color="#06E775"/>
<stop offset="1" stop-color="#00F076"/>
</linearGradient>
</defs>
</svg>
