<svg width="165" height="55" viewBox="0 0 165 55" fill="none" xmlns="http://www.w3.org/2000/svg">
<path d="M0 14.4375C0 9.95281 0 7.71047 0.73266 5.94167C1.70954 3.58328 3.58328 1.70954 5.94167 0.73266C7.71047 0 9.95281 0 14.4375 0H150.562C155.047 0 157.29 0 159.058 0.73266C161.417 1.70954 163.29 3.58328 164.267 5.94167C165 7.71047 165 9.95281 165 14.4375V40.5625C165 45.0472 165 47.2895 164.267 49.0583C163.29 51.4167 161.417 53.2905 159.058 54.2673C157.29 55 155.047 55 150.562 55H14.4375C9.95281 55 7.71047 55 5.94167 54.2673C3.58328 53.2905 1.70954 51.4167 0.73266 49.0583C0 47.2895 0 45.0472 0 40.5625V14.4375Z" fill="#0C0D10"/>
<path d="M112.098 26.401V29.5511H110.124V31.617H112.098V38.6364C112.098 41.0332 113.182 41.9919 115.91 41.9919C116.39 41.9919 116.846 41.9349 117.246 41.8664V39.8234C116.903 39.8576 116.686 39.8804 116.31 39.8804C115.089 39.8804 114.552 39.3098 114.552 38.0086V31.617H117.246V29.5511H114.552V26.401H112.098Z" fill="white"/>
<path d="M124.195 42.1631C127.824 42.1631 130.05 39.7321 130.05 35.7031C130.05 31.6969 127.813 29.2544 124.195 29.2544C120.565 29.2544 118.328 31.6969 118.328 35.7031C118.328 39.7321 120.554 42.1631 124.195 42.1631ZM124.195 39.9832C122.06 39.9832 120.862 38.4195 120.862 35.7031C120.862 33.0095 122.06 31.4344 124.195 31.4344C126.318 31.4344 127.528 33.0095 127.528 35.7031C127.528 38.4081 126.318 39.9832 124.195 39.9832Z" fill="white"/>
<path d="M131.954 41.9235H134.408V34.5845C134.408 32.8383 135.721 31.6627 137.581 31.6627C138.015 31.6627 138.745 31.7426 138.951 31.811V29.3914C138.688 29.3229 138.22 29.2886 137.855 29.2886C136.234 29.2886 134.853 30.1789 134.499 31.4001H134.317V29.4941H131.954V41.9235Z" fill="white"/>
<path d="M145.044 31.3431C146.858 31.3431 148.045 32.61 148.103 34.5617H141.825C141.962 32.6214 143.229 31.3431 145.044 31.3431ZM148.091 38.5679C147.635 39.538 146.619 40.0745 145.135 40.0745C143.172 40.0745 141.905 38.6934 141.825 36.5134V36.3765H150.602V35.5204C150.602 31.617 148.513 29.2544 145.055 29.2544C141.551 29.2544 139.325 31.7768 139.325 35.7487C139.325 39.7206 141.505 42.1631 145.067 42.1631C147.908 42.1631 149.894 40.7935 150.454 38.5679H148.091Z" fill="white"/>
<path d="M96.0058 37.3335C96.195 40.3856 98.7384 42.3375 102.524 42.3375C106.57 42.3375 109.101 40.2909 109.101 37.0259C109.101 34.4588 107.658 33.0393 104.157 32.223L102.276 31.7616C100.052 31.2411 99.1525 30.5432 99.1525 29.3247C99.1525 27.7868 100.548 26.7813 102.642 26.7813C104.63 26.7813 106.002 27.7631 106.25 29.3365H108.829C108.676 26.4619 106.144 24.439 102.678 24.439C98.9514 24.439 96.4671 26.4619 96.4671 29.5021C96.4671 32.0101 97.8749 33.5006 100.962 34.2222L103.163 34.7546C105.422 35.2869 106.416 36.0677 106.416 37.369C106.416 38.8832 104.854 39.9834 102.725 39.9834C100.442 39.9834 98.8567 38.9542 98.632 37.3335H96.0058Z" fill="white"/>
<path d="M70.5857 29.2886C68.8965 29.2886 67.4355 30.1332 66.6822 31.5485H66.4996V29.4941H64.137V46.0552H66.5909V40.0402H66.7849C67.4355 41.3528 68.8394 42.1289 70.6085 42.1289C73.7472 42.1289 75.7446 39.6522 75.7446 35.7031C75.7446 31.754 73.7472 29.2886 70.5857 29.2886ZM69.8894 39.9261C67.835 39.9261 66.5453 38.3054 66.5453 35.7145C66.5453 33.1122 67.835 31.4915 69.9009 31.4915C71.9781 31.4915 73.2222 33.0779 73.2222 35.7031C73.2222 38.3396 71.9781 39.9261 69.8894 39.9261Z" fill="white"/>
<path d="M84.3313 29.2886C82.6421 29.2886 81.1811 30.1332 80.4278 31.5485H80.2452V29.4941H77.8826V46.0552H80.3365V40.0402H80.5305C81.1811 41.3528 82.585 42.1289 84.3541 42.1289C87.4928 42.1289 89.4902 39.6522 89.4902 35.7031C89.4902 31.754 87.4928 29.2886 84.3313 29.2886ZM83.635 39.9261C81.5806 39.9261 80.2909 38.3054 80.2909 35.7145C80.2909 33.1122 81.5806 31.4915 83.6465 31.4915C85.7237 31.4915 86.9678 33.0779 86.9678 35.7031C86.9678 38.3396 85.7237 39.9261 83.635 39.9261Z" fill="white"/>
<path d="M59.7342 41.9235H62.5497L56.3864 24.853H53.5354L47.3721 41.9235H50.0929L51.6663 37.3926H58.1727L59.7342 41.9235ZM54.8249 27.9524H55.026L57.4984 35.1686H52.3406L54.8249 27.9524Z" fill="white"/>
<path d="M49.0205 11.977V20.2119H51.9937C54.4477 20.2119 55.8687 18.6996 55.8687 16.0687C55.8687 13.4778 54.4362 11.977 51.9937 11.977H49.0205ZM50.2988 13.1411H51.8511C53.5574 13.1411 54.5675 14.2254 54.5675 16.0858C54.5675 17.9748 53.5745 19.0477 51.8511 19.0477H50.2988V13.1411Z" fill="white"/>
<path d="M60.2206 20.3317C62.0354 20.3317 63.1482 19.1161 63.1482 17.1017C63.1482 15.0986 62.0297 13.8773 60.2206 13.8773C58.4059 13.8773 57.2874 15.0986 57.2874 17.1017C57.2874 19.1161 58.4002 20.3317 60.2206 20.3317ZM60.2206 19.2417C59.1535 19.2417 58.5543 18.4599 58.5543 17.1017C58.5543 15.7549 59.1535 14.9673 60.2206 14.9673C61.2821 14.9673 61.887 15.7549 61.887 17.1017C61.887 18.4542 61.2821 19.2417 60.2206 19.2417Z" fill="white"/>
<path d="M72.6249 13.9972H71.398L70.2908 18.7395H70.1938L68.9155 13.9972H67.7399L66.4616 18.7395H66.3703L65.2575 13.9972H64.0134L65.7254 20.2119H66.9866L68.2649 15.635H68.3619L69.646 20.2119H70.9186L72.6249 13.9972Z" fill="white"/>
<path d="M74.0379 20.2119H75.2649V16.5766C75.2649 15.6065 75.8413 15.0016 76.7486 15.0016C77.656 15.0016 78.0897 15.498 78.0897 16.4967V20.2119H79.3167V16.1886C79.3167 14.7105 78.552 13.8773 77.1652 13.8773C76.2293 13.8773 75.613 14.2939 75.3105 14.9844H75.2192V13.9972H74.0379V20.2119Z" fill="white"/>
<path d="M81.249 20.2119H82.476V11.5718H81.249V20.2119Z" fill="white"/>
<path d="M87.0905 20.3317C88.9052 20.3317 90.0181 19.1161 90.0181 17.1017C90.0181 15.0986 88.8995 13.8773 87.0905 13.8773C85.2757 13.8773 84.1572 15.0986 84.1572 17.1017C84.1572 19.1161 85.27 20.3317 87.0905 20.3317ZM87.0905 19.2417C86.0233 19.2417 85.4241 18.4599 85.4241 17.1017C85.4241 15.7549 86.0233 14.9673 87.0905 14.9673C88.1519 14.9673 88.7569 15.7549 88.7569 17.1017C88.7569 18.4542 88.1519 19.2417 87.0905 19.2417Z" fill="white"/>
<path d="M93.6738 19.2816C93.0061 19.2816 92.5211 18.9564 92.5211 18.3971C92.5211 17.8492 92.9091 17.5582 93.7651 17.5011L95.2831 17.4041V17.9234C95.2831 18.6938 94.5983 19.2816 93.6738 19.2816ZM93.36 20.3146C94.176 20.3146 94.8551 19.9608 95.2261 19.3387H95.3231V20.2119H96.5044V15.966C96.5044 14.6534 95.6255 13.8773 94.0676 13.8773C92.658 13.8773 91.6536 14.5621 91.5281 15.6293H92.7151C92.8521 15.1899 93.3257 14.9388 94.0105 14.9388C94.8494 14.9388 95.2831 15.3097 95.2831 15.966V16.5024L93.5996 16.5995C92.1216 16.6908 91.2884 17.3356 91.2884 18.4542C91.2884 19.5898 92.1615 20.3146 93.36 20.3146Z" fill="white"/>
<path d="M100.668 20.3146C101.524 20.3146 102.249 19.9094 102.62 19.2303H102.717V20.2119H103.892V11.5718H102.665V14.9844H102.574C102.237 14.2996 101.518 13.8944 100.668 13.8944C99.0987 13.8944 98.0886 15.1385 98.0886 17.1017C98.0886 19.0705 99.0873 20.3146 100.668 20.3146ZM101.016 14.9958C102.043 14.9958 102.688 15.8119 102.688 17.1074C102.688 18.4085 102.049 19.2132 101.016 19.2132C99.9775 19.2132 99.3555 18.4199 99.3555 17.1017C99.3555 15.7948 99.9833 14.9958 101.016 14.9958Z" fill="white"/>
<path d="M111.849 20.3317C113.664 20.3317 114.776 19.1161 114.776 17.1017C114.776 15.0986 113.658 13.8773 111.849 13.8773C110.034 13.8773 108.916 15.0986 108.916 17.1017C108.916 19.1161 110.028 20.3317 111.849 20.3317ZM111.849 19.2417C110.782 19.2417 110.182 18.4599 110.182 17.1017C110.182 15.7549 110.782 14.9673 111.849 14.9673C112.91 14.9673 113.515 15.7549 113.515 17.1017C113.515 18.4542 112.91 19.2417 111.849 19.2417Z" fill="white"/>
<path d="M116.401 20.2119H117.628V16.5766C117.628 15.6065 118.204 15.0016 119.111 15.0016C120.019 15.0016 120.452 15.498 120.452 16.4967V20.2119H121.679V16.1886C121.679 14.7105 120.915 13.8773 119.528 13.8773C118.592 13.8773 117.976 14.2939 117.673 14.9844H117.582V13.9972H116.401V20.2119Z" fill="white"/>
<path d="M127.33 12.4506V14.0257H126.343V15.0586H127.33V18.5683C127.33 19.7667 127.872 20.2461 129.236 20.2461C129.476 20.2461 129.704 20.2176 129.904 20.1833V19.1618C129.733 19.1789 129.624 19.1903 129.436 19.1903C128.825 19.1903 128.557 18.905 128.557 18.2544V15.0586H129.904V14.0257H128.557V12.4506H127.33Z" fill="white"/>
<path d="M131.551 20.2119H132.778V16.5823C132.778 15.6407 133.337 15.0073 134.342 15.0073C135.209 15.0073 135.671 15.5095 135.671 16.5024V20.2119H136.898V16.2C136.898 14.7219 136.082 13.883 134.758 13.883C133.822 13.883 133.166 14.2996 132.863 14.9958H132.766V11.5718H131.551V20.2119Z" fill="white"/>
<path d="M141.324 14.9217C142.232 14.9217 142.825 15.5551 142.854 16.531H139.715C139.784 15.5608 140.417 14.9217 141.324 14.9217ZM142.848 18.5341C142.62 19.0191 142.112 19.2874 141.37 19.2874C140.388 19.2874 139.755 18.5968 139.715 17.5068V17.4384H144.104V17.0103C144.104 15.0586 143.059 13.8773 141.33 13.8773C139.578 13.8773 138.465 15.1385 138.465 17.1245C138.465 19.1104 139.555 20.3317 141.336 20.3317C142.757 20.3317 143.75 19.6469 144.029 18.5341H142.848Z" fill="white"/>
<path d="M34.0572 27.9142C34.087 25.6028 35.3283 23.4158 37.2975 22.2051C36.0552 20.4309 33.9745 19.306 31.8097 19.2383C29.5007 18.996 27.2623 20.62 26.0857 20.62C24.8863 20.62 23.0747 19.2624 21.124 19.3025C18.5813 19.3847 16.2108 20.8303 14.9737 23.0533C12.3145 27.6574 14.298 34.4239 16.8454 38.1454C18.1199 39.9678 19.6094 42.0034 21.5584 41.9312C23.4656 41.8521 24.1779 40.7151 26.48 40.7151C28.7608 40.7151 29.4291 41.9312 31.4177 41.8853C33.4642 41.8521 34.7536 40.0549 35.9834 38.2153C36.8991 36.9168 37.6037 35.4816 38.0712 33.9631C35.6662 32.9458 34.0601 30.5255 34.0572 27.9142Z" fill="white"/>
<path d="M30.3012 16.7908C31.4171 15.4513 31.9668 13.7295 31.8337 11.9912C30.1289 12.1703 28.5542 12.985 27.4232 14.2732C26.3174 15.5318 25.7418 17.2232 25.8506 18.8951C27.556 18.9126 29.2326 18.12 30.3012 16.7908Z" fill="white"/>
<path d="M5.94167 54.2673L5.41548 55.5377L5.94167 54.2673ZM0.73266 49.0583L-0.537675 49.5845L0.73266 49.0583ZM164.267 49.0583L165.538 49.5845L164.267 49.0583ZM159.058 54.2673L158.532 52.997L159.058 54.2673ZM159.058 0.73266L158.532 2.00299L159.058 0.73266ZM164.267 5.94167L165.538 5.41548L164.267 5.94167ZM5.94167 0.73266L6.46786 2.00299L5.94167 0.73266ZM14.4375 1.375H150.562V-1.375H14.4375V1.375ZM163.625 14.4375V40.5625H166.375V14.4375H163.625ZM150.562 53.625H14.4375V56.375H150.562V53.625ZM1.375 40.5625V14.4375H-1.375V40.5625H1.375ZM14.4375 53.625C12.1763 53.625 10.5493 53.6243 9.26472 53.5366C7.99246 53.4498 7.15679 53.2824 6.46786 52.997L5.41548 55.5377C6.49535 55.985 7.66525 56.1839 9.07753 56.2802C10.4775 56.3757 12.214 56.375 14.4375 56.375V53.625ZM-1.375 40.5625C-1.375 42.786 -1.37574 44.5225 -1.28023 45.9225C-1.18387 47.3348 -0.984969 48.5047 -0.537675 49.5845L2.00299 48.5321C1.71763 47.8432 1.5502 47.0075 1.46339 45.7353C1.37574 44.4507 1.375 42.8237 1.375 40.5625H-1.375ZM6.46786 52.997C4.44638 52.1597 2.84032 50.5536 2.00299 48.5321L-0.537675 49.5845C0.578759 52.2798 2.72017 54.4212 5.41548 55.5377L6.46786 52.997ZM163.625 40.5625C163.625 42.8237 163.624 44.4507 163.537 45.7353C163.45 47.0075 163.282 47.8432 162.997 48.5321L165.538 49.5845C165.985 48.5047 166.184 47.3348 166.28 45.9225C166.376 44.5225 166.375 42.786 166.375 40.5625H163.625ZM150.562 56.375C152.786 56.375 154.523 56.3757 155.922 56.2802C157.335 56.1839 158.505 55.985 159.585 55.5377L158.532 52.997C157.843 53.2824 157.008 53.4498 155.735 53.5366C154.451 53.6243 152.824 53.625 150.562 53.625V56.375ZM162.997 48.5321C162.16 50.5536 160.554 52.1597 158.532 52.997L159.585 55.5377C162.28 54.4212 164.421 52.2798 165.538 49.5845L162.997 48.5321ZM150.562 1.375C152.824 1.375 154.451 1.37574 155.735 1.46339C157.008 1.5502 157.843 1.71763 158.532 2.00299L159.585 -0.537675C158.505 -0.984969 157.335 -1.18387 155.922 -1.28023C154.523 -1.37574 152.786 -1.375 150.562 -1.375V1.375ZM166.375 14.4375C166.375 12.214 166.376 10.4775 166.28 9.07753C166.184 7.66525 165.985 6.49535 165.538 5.41548L162.997 6.46786C163.282 7.15679 163.45 7.99246 163.537 9.26473C163.624 10.5493 163.625 12.1763 163.625 14.4375H166.375ZM158.532 2.00299C160.554 2.84032 162.16 4.44638 162.997 6.46786L165.538 5.41548C164.421 2.72017 162.28 0.578759 159.585 -0.537675L158.532 2.00299ZM14.4375 -1.375C12.214 -1.375 10.4775 -1.37574 9.07753 -1.28023C7.66525 -1.18387 6.49535 -0.984969 5.41548 -0.537675L6.46786 2.00299C7.15679 1.71763 7.99246 1.5502 9.26473 1.46339C10.5493 1.37574 12.1763 1.375 14.4375 1.375V-1.375ZM1.375 14.4375C1.375 12.1763 1.37574 10.5493 1.46339 9.26472C1.5502 7.99246 1.71763 7.15679 2.00299 6.46786L-0.537675 5.41548C-0.984969 6.49535 -1.18387 7.66525 -1.28023 9.07753C-1.37574 10.4775 -1.375 12.214 -1.375 14.4375H1.375ZM5.41548 -0.537675C2.72017 0.578759 0.578759 2.72017 -0.537675 5.41548L2.00299 6.46786C2.84032 4.44638 4.44638 2.84032 6.46786 2.00299L5.41548 -0.537675Z" fill="#A6A6A6"/>
</svg>
