<svg width="534" height="20" viewBox="0 0 534 20" fill="none" xmlns="http://www.w3.org/2000/svg">
<path d="M2 1.3L6.25 16.45H6.3L10.75 1.3H12.9L17.35 16.45H17.4L21.6 1.3H23.6L18.375 19H16.275L11.825 3.85H11.775L7.325 19H5.225L0 1.3H2ZM28.0084 19V1.3H29.8084V8.975H39.4584V1.3H41.2584V19H39.4584V10.625H29.8084V19H28.0084ZM49.8504 10.625V17.35H59.3254V19H48.0504V1.3H59.0254V2.95H49.8504V8.975H58.4254V10.625H49.8504ZM66.6697 10.775V19H64.8697V1.3H70.3197C72.1531 1.3 73.5781 1.7 74.5947 2.5C75.6281 3.3 76.1447 4.475 76.1447 6.025C76.1447 7.275 75.7447 8.325 74.9447 9.175C74.1447 10.0083 73.0364 10.4833 71.6197 10.6L76.7197 19H74.5197L69.6697 10.775H66.6697ZM66.6697 2.95V9.125H69.8697C71.3864 9.125 72.4864 8.84167 73.1697 8.275C73.8531 7.70833 74.1947 6.95833 74.1947 6.025C74.1947 5.09167 73.8531 4.35 73.1697 3.8C72.4864 3.23333 71.3864 2.95 69.8697 2.95H66.6697ZM83.4891 10.625V17.35H92.9641V19H81.6891V1.3H92.6641V2.95H83.4891V8.975H92.0641V10.625H83.4891ZM113.141 11.375V19H111.341V11.375L104.716 1.3H106.966L112.241 9.65L117.516 1.3H119.766L113.141 11.375ZM138.447 3.5C140.197 5.25 141.072 7.46667 141.072 10.15C141.072 12.8333 140.197 15.0583 138.447 16.825C136.697 18.575 134.497 19.45 131.847 19.45C129.197 19.45 126.997 18.575 125.247 16.825C123.497 15.0583 122.622 12.8333 122.622 10.15C122.622 7.46667 123.497 5.25 125.247 3.5C126.997 1.73333 129.197 0.85 131.847 0.85C134.497 0.85 136.697 1.73333 138.447 3.5ZM137.122 15.575C138.455 14.075 139.122 12.2667 139.122 10.15C139.122 8.03333 138.455 6.23333 137.122 4.75C135.805 3.25 134.047 2.5 131.847 2.5C129.647 2.5 127.88 3.25 126.547 4.75C125.23 6.23333 124.572 8.03333 124.572 10.15C124.572 12.2667 125.23 14.075 126.547 15.575C127.88 17.0583 129.647 17.8 131.847 17.8C134.047 17.8 135.805 17.0583 137.122 15.575ZM159.321 1.3V12.4C159.321 13.05 159.263 13.675 159.146 14.275C159.046 14.875 158.846 15.5 158.546 16.15C158.263 16.8 157.888 17.3583 157.421 17.825C156.955 18.2917 156.33 18.6833 155.546 19C154.763 19.3 153.863 19.45 152.846 19.45C151.83 19.45 150.93 19.3 150.146 19C149.363 18.6833 148.738 18.2917 148.271 17.825C147.805 17.3583 147.421 16.8 147.121 16.15C146.838 15.5 146.638 14.875 146.521 14.275C146.421 13.675 146.371 13.05 146.371 12.4V1.3H148.171V12.2C148.171 13.1667 148.288 14.0167 148.521 14.75C148.771 15.4667 149.063 16.0167 149.396 16.4C149.746 16.7667 150.155 17.0667 150.621 17.3C151.088 17.5167 151.488 17.6583 151.821 17.725C152.155 17.775 152.496 17.8 152.846 17.8C153.196 17.8 153.538 17.775 153.871 17.725C154.205 17.6583 154.605 17.5167 155.071 17.3C155.538 17.0667 155.938 16.7667 156.271 16.4C156.621 16.0167 156.913 15.4667 157.146 14.75C157.396 14.0167 157.521 13.1667 157.521 12.2V1.3H159.321ZM167.61 10.775V19H165.81V1.3H171.26C173.093 1.3 174.518 1.7 175.535 2.5C176.568 3.3 177.085 4.475 177.085 6.025C177.085 7.275 176.685 8.325 175.885 9.175C175.085 10.0083 173.977 10.4833 172.56 10.6L177.66 19H175.46L170.61 10.775H167.61ZM167.61 2.95V9.125H170.81C172.327 9.125 173.427 8.84167 174.11 8.275C174.793 7.70833 175.135 6.95833 175.135 6.025C175.135 5.09167 174.793 4.35 174.11 3.8C173.427 3.23333 172.327 2.95 170.81 2.95H167.61ZM331.947 19V1.3H337.822C338.955 1.3 340.064 1.49167 341.147 1.875C342.23 2.24167 343.222 2.78333 344.122 3.5C345.022 4.2 345.747 5.13333 346.297 6.3C346.847 7.45 347.122 8.73333 347.122 10.15C347.122 11.5667 346.847 12.8583 346.297 14.025C345.747 15.175 345.022 16.1083 344.122 16.825C343.222 17.525 342.23 18.0667 341.147 18.45C340.064 18.8167 338.955 19 337.822 19H331.947ZM333.747 2.95V17.35H337.247C338.547 17.35 339.714 17.15 340.747 16.75C341.78 16.35 342.614 15.8083 343.247 15.125C343.88 14.4417 344.355 13.675 344.672 12.825C345.005 11.975 345.172 11.0833 345.172 10.15C345.172 9.21667 345.005 8.325 344.672 7.475C344.355 6.625 343.88 5.85833 343.247 5.175C342.614 4.49167 341.78 3.95 340.747 3.55C339.714 3.15 338.547 2.95 337.247 2.95H333.747ZM367.352 3.5C369.102 5.25 369.977 7.46667 369.977 10.15C369.977 12.8333 369.102 15.0583 367.352 16.825C365.602 18.575 363.402 19.45 360.752 19.45C358.102 19.45 355.902 18.575 354.152 16.825C352.402 15.0583 351.527 12.8333 351.527 10.15C351.527 7.46667 352.402 5.25 354.152 3.5C355.902 1.73333 358.102 0.85 360.752 0.85C363.402 0.85 365.602 1.73333 367.352 3.5ZM366.027 15.575C367.36 14.075 368.027 12.2667 368.027 10.15C368.027 8.03333 367.36 6.23333 366.027 4.75C364.71 3.25 362.952 2.5 360.752 2.5C358.552 2.5 356.785 3.25 355.452 4.75C354.135 6.23333 353.477 8.03333 353.477 10.15C353.477 12.2667 354.135 14.075 355.452 15.575C356.785 17.0583 358.552 17.8 360.752 17.8C362.952 17.8 364.71 17.0583 366.027 15.575ZM377.827 1.3L388.377 16.3H388.427V1.3H390.227V19H387.977L377.427 3.85H377.377V19H375.577V1.3H377.827ZM399.735 1.3L397.71 7.175H396.035L397.71 1.3H399.735ZM411.204 2.95V19H409.404V2.95H403.479V1.3H417.129V2.95H411.204ZM433.592 1.3L439.567 15.7L445.542 1.3H448.292V19H446.492V3.7H446.442L440.042 19H439.092L432.692 3.7H432.642V19H430.842V1.3H433.592ZM456.734 14.35L454.784 19H452.684L460.384 1.3H462.134L469.834 19H467.734L465.784 14.35H456.734ZM461.259 3.4L457.409 12.7H465.084L461.259 3.4ZM478.188 2.95V19H476.388V2.95H470.463V1.3H484.113V2.95H478.188ZM494.544 2.95V19H492.744V2.95H486.819V1.3H500.469V2.95H494.544ZM507.024 10.625V17.35H516.499V19H505.224V1.3H516.199V2.95H507.024V8.975H515.599V10.625H507.024ZM523.844 10.775V19H522.044V1.3H527.494C529.327 1.3 530.752 1.7 531.769 2.5C532.802 3.3 533.319 4.475 533.319 6.025C533.319 7.275 532.919 8.325 532.119 9.175C531.319 10.0083 530.21 10.4833 528.794 10.6L533.894 19H531.694L526.844 10.775H523.844ZM523.844 2.95V9.125H527.044C528.56 9.125 529.66 8.84167 530.344 8.275C531.027 7.70833 531.369 6.95833 531.369 6.025C531.369 5.09167 531.027 4.35 530.344 3.8C529.66 3.23333 528.56 2.95 527.044 2.95H523.844Z" fill="#004A80"/>
<path d="M204.688 15.15L206.163 16.2C205.546 17.15 204.654 17.9333 203.488 18.55C202.321 19.15 201.029 19.45 199.613 19.45C196.963 19.45 194.763 18.575 193.013 16.825C191.263 15.0583 190.388 12.8333 190.388 10.15C190.388 7.46667 191.263 5.25 193.013 3.5C194.763 1.73333 196.963 0.85 199.613 0.85C200.779 0.85 201.904 1.08333 202.988 1.55C204.088 2.01667 205.004 2.71667 205.738 3.65L204.163 4.825C203.796 4.225 203.171 3.69167 202.288 3.225C201.404 2.74167 200.513 2.5 199.613 2.5C197.413 2.5 195.646 3.25 194.313 4.75C192.996 6.23333 192.338 8.03333 192.338 10.15C192.338 12.2667 192.996 14.075 194.313 15.575C195.646 17.0583 197.413 17.8 199.613 17.8C201.846 17.8 203.538 16.9167 204.688 15.15Z" fill="#ED1C24"/>
<path d="M225.815 3.5C227.565 5.25 228.44 7.46667 228.44 10.15C228.44 12.8333 227.565 15.0583 225.815 16.825C224.065 18.575 221.865 19.45 219.215 19.45C216.565 19.45 214.365 18.575 212.615 16.825C210.865 15.0583 209.99 12.8333 209.99 10.15C209.99 7.46667 210.865 5.25 212.615 3.5C214.365 1.73333 216.565 0.85 219.215 0.85C221.865 0.85 224.065 1.73333 225.815 3.5ZM224.49 15.575C225.823 14.075 226.49 12.2667 226.49 10.15C226.49 8.03333 225.823 6.23333 224.49 4.75C223.173 3.25 221.415 2.5 219.215 2.5C217.015 2.5 215.248 3.25 213.915 4.75C212.598 6.23333 211.94 8.03333 211.94 10.15C211.94 12.2667 212.598 14.075 213.915 15.575C215.248 17.0583 217.015 17.8 219.215 17.8C221.415 17.8 223.173 17.0583 224.49 15.575Z" fill="#F26522"/>
<path d="M235.84 1.3V17.35H244.09V19H234.04V1.3H235.84Z" fill="#605CA8"/>
<path d="M263.165 3.5C264.915 5.25 265.79 7.46667 265.79 10.15C265.79 12.8333 264.915 15.0583 263.165 16.825C261.415 18.575 259.215 19.45 256.565 19.45C253.915 19.45 251.715 18.575 249.965 16.825C248.215 15.0583 247.34 12.8333 247.34 10.15C247.34 7.46667 248.215 5.25 249.965 3.5C251.715 1.73333 253.915 0.85 256.565 0.85C259.215 0.85 261.415 1.73333 263.165 3.5ZM261.84 15.575C263.173 14.075 263.84 12.2667 263.84 10.15C263.84 8.03333 263.173 6.23333 261.84 4.75C260.523 3.25 258.765 2.5 256.565 2.5C254.365 2.5 252.598 3.25 251.265 4.75C249.948 6.23333 249.29 8.03333 249.29 10.15C249.29 12.2667 249.948 14.075 251.265 15.575C252.598 17.0583 254.365 17.8 256.565 17.8C258.765 17.8 260.523 17.0583 261.84 15.575Z" fill="#2E3192"/>
<path d="M284.039 1.3V12.4C284.039 13.05 283.981 13.675 283.864 14.275C283.764 14.875 283.564 15.5 283.264 16.15C282.981 16.8 282.606 17.3583 282.139 17.825C281.673 18.2917 281.048 18.6833 280.264 19C279.481 19.3 278.581 19.45 277.564 19.45C276.548 19.45 275.648 19.3 274.864 19C274.081 18.6833 273.456 18.2917 272.989 17.825C272.523 17.3583 272.139 16.8 271.839 16.15C271.556 15.5 271.356 14.875 271.239 14.275C271.139 13.675 271.089 13.05 271.089 12.4V1.3H272.889V12.2C272.889 13.1667 273.006 14.0167 273.239 14.75C273.489 15.4667 273.781 16.0167 274.114 16.4C274.464 16.7667 274.873 17.0667 275.339 17.3C275.806 17.5167 276.206 17.6583 276.539 17.725C276.873 17.775 277.214 17.8 277.564 17.8C277.914 17.8 278.256 17.775 278.589 17.725C278.923 17.6583 279.323 17.5167 279.789 17.3C280.256 17.0667 280.656 16.7667 280.989 16.4C281.339 16.0167 281.631 15.4667 281.864 14.75C282.114 14.0167 282.239 13.1667 282.239 12.2V1.3H284.039Z" fill="white"/>
<path d="M292.328 10.775V19H290.528V1.3H295.978C297.811 1.3 299.236 1.7 300.253 2.5C301.286 3.3 301.803 4.475 301.803 6.025C301.803 7.275 301.403 8.325 300.603 9.175C299.803 10.0083 298.695 10.4833 297.278 10.6L302.378 19H300.178L295.328 10.775H292.328ZM292.328 2.95V9.125H295.528C297.045 9.125 298.145 8.84167 298.828 8.275C299.511 7.70833 299.853 6.95833 299.853 6.025C299.853 5.09167 299.511 4.35 298.828 3.8C298.145 3.23333 297.045 2.95 295.528 2.95H292.328Z" fill="#FFF200"/>
<path d="M317.297 3L315.722 4.225C314.939 3.075 313.797 2.5 312.297 2.5C311.281 2.5 310.397 2.775 309.647 3.325C308.897 3.875 308.522 4.66667 308.522 5.7C308.522 6.56667 308.831 7.26667 309.447 7.8C310.081 8.31667 310.839 8.71667 311.722 9C312.606 9.26667 313.489 9.56667 314.372 9.9C315.272 10.2167 316.031 10.7417 316.647 11.475C317.281 12.2083 317.597 13.1583 317.597 14.325C317.597 15.8583 316.997 17.1 315.797 18.05C314.614 18.9833 313.272 19.45 311.772 19.45C309.339 19.45 307.481 18.575 306.197 16.825L307.822 15.65C308.656 17.0833 309.997 17.8 311.847 17.8C312.814 17.8 313.689 17.5083 314.472 16.925C315.256 16.3417 315.647 15.5583 315.647 14.575C315.647 13.7917 315.422 13.15 314.972 12.65C314.522 12.1333 313.964 11.7667 313.297 11.55C312.631 11.3167 311.897 11.0583 311.097 10.775C310.314 10.4917 309.589 10.2 308.922 9.9C308.256 9.6 307.697 9.10833 307.247 8.425C306.797 7.74167 306.572 6.89167 306.572 5.875C306.572 4.25833 307.131 3.01667 308.247 2.15C309.381 1.28333 310.731 0.85 312.297 0.85C314.381 0.85 316.047 1.56667 317.297 3Z" fill="#92278F"/>
</svg>
