<svg width="430" height="20" viewBox="0 0 430 20" fill="none" xmlns="http://www.w3.org/2000/svg">
<path d="M9.075 11.375V19H7.275V11.375L0.65 1.3H2.9L8.175 9.65L13.45 1.3H15.7L9.075 11.375ZM34.3805 3.5C36.1305 5.25 37.0055 7.46667 37.0055 10.15C37.0055 12.8333 36.1305 15.0583 34.3805 16.825C32.6305 18.575 30.4305 19.45 27.7805 19.45C25.1305 19.45 22.9305 18.575 21.1805 16.825C19.4305 15.0583 18.5555 12.8333 18.5555 10.15C18.5555 7.46667 19.4305 5.25 21.1805 3.5C22.9305 1.73333 25.1305 0.85 27.7805 0.85C30.4305 0.85 32.6305 1.73333 34.3805 3.5ZM33.0555 15.575C34.3888 14.075 35.0555 12.2667 35.0555 10.15C35.0555 8.03333 34.3888 6.23333 33.0555 4.75C31.7388 3.25 29.9805 2.5 27.7805 2.5C25.5805 2.5 23.8138 3.25 22.4805 4.75C21.1638 6.23333 20.5055 8.03333 20.5055 10.15C20.5055 12.2667 21.1638 14.075 22.4805 15.575C23.8138 17.0583 25.5805 17.8 27.7805 17.8C29.9805 17.8 31.7388 17.0583 33.0555 15.575ZM55.2551 1.3V12.4C55.2551 13.05 55.1967 13.675 55.0801 14.275C54.9801 14.875 54.7801 15.5 54.4801 16.15C54.1967 16.8 53.8217 17.3583 53.3551 17.825C52.8884 18.2917 52.2634 18.6833 51.4801 19C50.6967 19.3 49.7967 19.45 48.7801 19.45C47.7634 19.45 46.8634 19.3 46.0801 19C45.2967 18.6833 44.6717 18.2917 44.2051 17.825C43.7384 17.3583 43.3551 16.8 43.0551 16.15C42.7717 15.5 42.5717 14.875 42.4551 14.275C42.3551 13.675 42.3051 13.05 42.3051 12.4V1.3H44.1051V12.2C44.1051 13.1667 44.2217 14.0167 44.4551 14.75C44.7051 15.4667 44.9967 16.0167 45.3301 16.4C45.6801 16.7667 46.0884 17.0667 46.5551 17.3C47.0217 17.5167 47.4217 17.6583 47.7551 17.725C48.0884 17.775 48.4301 17.8 48.7801 17.8C49.1301 17.8 49.4717 17.775 49.8051 17.725C50.1384 17.6583 50.5384 17.5167 51.0051 17.3C51.4717 17.0667 51.8717 16.7667 52.2051 16.4C52.5551 16.0167 52.8467 15.4667 53.0801 14.75C53.3301 14.0167 53.4551 13.1667 53.4551 12.2V1.3H55.2551ZM63.5438 10.775V19H61.7438V1.3H67.1938C69.0271 1.3 70.4521 1.7 71.4688 2.5C72.5021 3.3 73.0188 4.475 73.0188 6.025C73.0188 7.275 72.6188 8.325 71.8188 9.175C71.0188 10.0083 69.9104 10.4833 68.4938 10.6L73.5938 19H71.3938L66.5438 10.775H63.5438ZM63.5438 2.95V9.125H66.7438C68.2604 9.125 69.3604 8.84167 70.0438 8.275C70.7271 7.70833 71.0688 6.95833 71.0688 6.025C71.0688 5.09167 70.7271 4.35 70.0438 3.8C69.3604 3.23333 68.2604 2.95 66.7438 2.95H63.5438ZM227.88 19V1.3H233.755C234.889 1.3 235.997 1.49167 237.08 1.875C238.164 2.24167 239.155 2.78333 240.055 3.5C240.955 4.2 241.68 5.13333 242.23 6.3C242.78 7.45 243.055 8.73333 243.055 10.15C243.055 11.5667 242.78 12.8583 242.23 14.025C241.68 15.175 240.955 16.1083 240.055 16.825C239.155 17.525 238.164 18.0667 237.08 18.45C235.997 18.8167 234.889 19 233.755 19H227.88ZM229.68 2.95V17.35H233.18C234.48 17.35 235.647 17.15 236.68 16.75C237.714 16.35 238.547 15.8083 239.18 15.125C239.814 14.4417 240.289 13.675 240.605 12.825C240.939 11.975 241.105 11.0833 241.105 10.15C241.105 9.21667 240.939 8.325 240.605 7.475C240.289 6.625 239.814 5.85833 239.18 5.175C238.547 4.49167 237.714 3.95 236.68 3.55C235.647 3.15 234.48 2.95 233.18 2.95H229.68ZM263.286 3.5C265.036 5.25 265.911 7.46667 265.911 10.15C265.911 12.8333 265.036 15.0583 263.286 16.825C261.536 18.575 259.336 19.45 256.686 19.45C254.036 19.45 251.836 18.575 250.086 16.825C248.336 15.0583 247.461 12.8333 247.461 10.15C247.461 7.46667 248.336 5.25 250.086 3.5C251.836 1.73333 254.036 0.85 256.686 0.85C259.336 0.85 261.536 1.73333 263.286 3.5ZM261.961 15.575C263.294 14.075 263.961 12.2667 263.961 10.15C263.961 8.03333 263.294 6.23333 261.961 4.75C260.644 3.25 258.886 2.5 256.686 2.5C254.486 2.5 252.719 3.25 251.386 4.75C250.069 6.23333 249.411 8.03333 249.411 10.15C249.411 12.2667 250.069 14.075 251.386 15.575C252.719 17.0583 254.486 17.8 256.686 17.8C258.886 17.8 260.644 17.0583 261.961 15.575ZM273.76 1.3L284.31 16.3H284.36V1.3H286.16V19H283.91L273.36 3.85H273.31V19H271.51V1.3H273.76ZM295.668 1.3L293.643 7.175H291.968L293.643 1.3H295.668ZM307.138 2.95V19H305.338V2.95H299.413V1.3H313.063V2.95H307.138ZM329.526 1.3L335.501 15.7L341.476 1.3H344.226V19H342.426V3.7H342.376L335.976 19H335.026L328.626 3.7H328.576V19H326.776V1.3H329.526ZM352.667 14.35L350.717 19H348.617L356.317 1.3H358.067L365.767 19H363.667L361.717 14.35H352.667ZM357.192 3.4L353.342 12.7H361.017L357.192 3.4ZM374.122 2.95V19H372.322V2.95H366.397V1.3H380.047V2.95H374.122ZM390.477 2.95V19H388.677V2.95H382.752V1.3H396.402V2.95H390.477ZM402.958 10.625V17.35H412.433V19H401.158V1.3H412.133V2.95H402.958V8.975H411.533V10.625H402.958ZM419.777 10.775V19H417.977V1.3H423.427C425.26 1.3 426.685 1.7 427.702 2.5C428.735 3.3 429.252 4.475 429.252 6.025C429.252 7.275 428.852 8.325 428.052 9.175C427.252 10.0083 426.144 10.4833 424.727 10.6L429.827 19H427.627L422.777 10.775H419.777ZM419.777 2.95V9.125H422.977C424.494 9.125 425.594 8.84167 426.277 8.275C426.96 7.70833 427.302 6.95833 427.302 6.025C427.302 5.09167 426.96 4.35 426.277 3.8C425.594 3.23333 424.494 2.95 422.977 2.95H419.777Z" fill="#004A80"/>
<path d="M100.621 15.15L102.096 16.2C101.479 17.15 100.588 17.9333 99.4211 18.55C98.2544 19.15 96.9628 19.45 95.5461 19.45C92.8961 19.45 90.6961 18.575 88.9461 16.825C87.1961 15.0583 86.3211 12.8333 86.3211 10.15C86.3211 7.46667 87.1961 5.25 88.9461 3.5C90.6961 1.73333 92.8961 0.85 95.5461 0.85C96.7128 0.85 97.8378 1.08333 98.9211 1.55C100.021 2.01667 100.938 2.71667 101.671 3.65L100.096 4.825C99.7294 4.225 99.1044 3.69167 98.2211 3.225C97.3378 2.74167 96.4461 2.5 95.5461 2.5C93.3461 2.5 91.5794 3.25 90.2461 4.75C88.9294 6.23333 88.2711 8.03333 88.2711 10.15C88.2711 12.2667 88.9294 14.075 90.2461 15.575C91.5794 17.0583 93.3461 17.8 95.5461 17.8C97.7794 17.8 99.4711 16.9167 100.621 15.15Z" fill="#ED1C24"/>
<path d="M121.749 3.5C123.499 5.25 124.374 7.46667 124.374 10.15C124.374 12.8333 123.499 15.0583 121.749 16.825C119.999 18.575 117.799 19.45 115.149 19.45C112.499 19.45 110.299 18.575 108.549 16.825C106.799 15.0583 105.924 12.8333 105.924 10.15C105.924 7.46667 106.799 5.25 108.549 3.5C110.299 1.73333 112.499 0.85 115.149 0.85C117.799 0.85 119.999 1.73333 121.749 3.5ZM120.424 15.575C121.757 14.075 122.424 12.2667 122.424 10.15C122.424 8.03333 121.757 6.23333 120.424 4.75C119.107 3.25 117.349 2.5 115.149 2.5C112.949 2.5 111.182 3.25 109.849 4.75C108.532 6.23333 107.874 8.03333 107.874 10.15C107.874 12.2667 108.532 14.075 109.849 15.575C111.182 17.0583 112.949 17.8 115.149 17.8C117.349 17.8 119.107 17.0583 120.424 15.575Z" fill="#F26522"/>
<path d="M131.773 1.3V17.35H140.023V19H129.973V1.3H131.773Z" fill="#605CA8"/>
<path d="M159.098 3.5C160.848 5.25 161.723 7.46667 161.723 10.15C161.723 12.8333 160.848 15.0583 159.098 16.825C157.348 18.575 155.148 19.45 152.498 19.45C149.848 19.45 147.648 18.575 145.898 16.825C144.148 15.0583 143.273 12.8333 143.273 10.15C143.273 7.46667 144.148 5.25 145.898 3.5C147.648 1.73333 149.848 0.85 152.498 0.85C155.148 0.85 157.348 1.73333 159.098 3.5ZM157.773 15.575C159.107 14.075 159.773 12.2667 159.773 10.15C159.773 8.03333 159.107 6.23333 157.773 4.75C156.457 3.25 154.698 2.5 152.498 2.5C150.298 2.5 148.532 3.25 147.198 4.75C145.882 6.23333 145.223 8.03333 145.223 10.15C145.223 12.2667 145.882 14.075 147.198 15.575C148.532 17.0583 150.298 17.8 152.498 17.8C154.698 17.8 156.457 17.0583 157.773 15.575Z" fill="#2E3192"/>
<path d="M179.973 1.3V12.4C179.973 13.05 179.915 13.675 179.798 14.275C179.698 14.875 179.498 15.5 179.198 16.15C178.915 16.8 178.54 17.3583 178.073 17.825C177.606 18.2917 176.981 18.6833 176.198 19C175.415 19.3 174.515 19.45 173.498 19.45C172.481 19.45 171.581 19.3 170.798 19C170.015 18.6833 169.39 18.2917 168.923 17.825C168.456 17.3583 168.073 16.8 167.773 16.15C167.49 15.5 167.29 14.875 167.173 14.275C167.073 13.675 167.023 13.05 167.023 12.4V1.3H168.823V12.2C168.823 13.1667 168.94 14.0167 169.173 14.75C169.423 15.4667 169.715 16.0167 170.048 16.4C170.398 16.7667 170.806 17.0667 171.273 17.3C171.74 17.5167 172.14 17.6583 172.473 17.725C172.806 17.775 173.148 17.8 173.498 17.8C173.848 17.8 174.19 17.775 174.523 17.725C174.856 17.6583 175.256 17.5167 175.723 17.3C176.19 17.0667 176.59 16.7667 176.923 16.4C177.273 16.0167 177.565 15.4667 177.798 14.75C178.048 14.0167 178.173 13.1667 178.173 12.2V1.3H179.973Z" fill="white"/>
<path d="M188.262 10.775V19H186.462V1.3H191.912C193.745 1.3 195.17 1.7 196.187 2.5C197.22 3.3 197.737 4.475 197.737 6.025C197.737 7.275 197.337 8.325 196.537 9.175C195.737 10.0083 194.628 10.4833 193.212 10.6L198.312 19H196.112L191.262 10.775H188.262ZM188.262 2.95V9.125H191.462C192.978 9.125 194.078 8.84167 194.762 8.275C195.445 7.70833 195.787 6.95833 195.787 6.025C195.787 5.09167 195.445 4.35 194.762 3.8C194.078 3.23333 192.978 2.95 191.462 2.95H188.262Z" fill="#FFF200"/>
<path d="M213.231 3L211.656 4.225C210.873 3.075 209.731 2.5 208.231 2.5C207.214 2.5 206.331 2.775 205.581 3.325C204.831 3.875 204.456 4.66667 204.456 5.7C204.456 6.56667 204.764 7.26667 205.381 7.8C206.014 8.31667 206.773 8.71667 207.656 9C208.539 9.26667 209.423 9.56667 210.306 9.9C211.206 10.2167 211.964 10.7417 212.581 11.475C213.214 12.2083 213.531 13.1583 213.531 14.325C213.531 15.8583 212.931 17.1 211.731 18.05C210.548 18.9833 209.206 19.45 207.706 19.45C205.273 19.45 203.414 18.575 202.131 16.825L203.756 15.65C204.589 17.0833 205.931 17.8 207.781 17.8C208.748 17.8 209.623 17.5083 210.406 16.925C211.189 16.3417 211.581 15.5583 211.581 14.575C211.581 13.7917 211.356 13.15 210.906 12.65C210.456 12.1333 209.898 11.7667 209.231 11.55C208.564 11.3167 207.831 11.0583 207.031 10.775C206.248 10.4917 205.523 10.2 204.856 9.9C204.189 9.6 203.631 9.10833 203.181 8.425C202.731 7.74167 202.506 6.89167 202.506 5.875C202.506 4.25833 203.064 3.01667 204.181 2.15C205.314 1.28333 206.664 0.85 208.231 0.85C210.314 0.85 211.981 1.56667 213.231 3Z" fill="#92278F"/>
</svg>
