<svg width="360" height="16" viewBox="0 0 360 16" fill="none" xmlns="http://www.w3.org/2000/svg">
<path d="M7.524 13.144C6.264 13.144 5.124 12.868 4.104 12.316C3.096 11.752 2.304 10.984 1.728 10.012C1.152 9.028 0.864 7.924 0.864 6.7C0.864 5.476 1.152 4.378 1.728 3.406C2.304 2.422 3.102 1.654 4.122 1.102C5.142 0.538 6.282 0.256 7.542 0.256C8.526 0.256 9.426 0.424 10.242 0.76C11.058 1.084 11.754 1.57 12.33 2.218L11.16 3.352C10.212 2.356 9.03 1.858 7.614 1.858C6.678 1.858 5.832 2.068 5.076 2.488C4.32 2.908 3.726 3.49 3.294 4.234C2.874 4.966 2.664 5.788 2.664 6.7C2.664 7.612 2.874 8.44 3.294 9.184C3.726 9.916 4.32 10.492 5.076 10.912C5.832 11.332 6.678 11.542 7.614 11.542C9.018 11.542 10.2 11.038 11.16 10.03L12.33 11.164C11.754 11.812 11.052 12.304 10.224 12.64C9.408 12.976 8.508 13.144 7.524 13.144ZM18.5275 13.108C17.5795 13.108 16.7275 12.898 15.9715 12.478C15.2155 12.058 14.6215 11.482 14.1895 10.75C13.7695 10.006 13.5595 9.166 13.5595 8.23C13.5595 7.294 13.7695 6.46 14.1895 5.728C14.6215 4.984 15.2155 4.408 15.9715 4C16.7275 3.58 17.5795 3.37 18.5275 3.37C19.4755 3.37 20.3215 3.58 21.0655 4C21.8215 4.408 22.4095 4.984 22.8295 5.728C23.2615 6.46 23.4775 7.294 23.4775 8.23C23.4775 9.166 23.2615 10.006 22.8295 10.75C22.4095 11.482 21.8215 12.058 21.0655 12.478C20.3215 12.898 19.4755 13.108 18.5275 13.108ZM18.5275 11.596C19.1395 11.596 19.6855 11.458 20.1655 11.182C20.6575 10.894 21.0415 10.498 21.3175 9.994C21.5935 9.478 21.7315 8.89 21.7315 8.23C21.7315 7.57 21.5935 6.988 21.3175 6.484C21.0415 5.968 20.6575 5.572 20.1655 5.296C19.6855 5.02 19.1395 4.882 18.5275 4.882C17.9155 4.882 17.3635 5.02 16.8715 5.296C16.3915 5.572 16.0075 5.968 15.7195 6.484C15.4435 6.988 15.3055 7.57 15.3055 8.23C15.3055 8.89 15.4435 9.478 15.7195 9.994C16.0075 10.498 16.3915 10.894 16.8715 11.182C17.3635 11.458 17.9155 11.596 18.5275 11.596ZM31.1613 3.37C32.3733 3.37 33.3333 3.724 34.0413 4.432C34.7613 5.128 35.1213 6.154 35.1213 7.51V13H33.3933V7.708C33.3933 6.784 33.1713 6.088 32.7273 5.62C32.2833 5.152 31.6473 4.918 30.8193 4.918C29.8833 4.918 29.1453 5.194 28.6053 5.746C28.0653 6.286 27.7953 7.066 27.7953 8.086V13H26.0673V3.46H27.7233V4.9C28.0713 4.408 28.5393 4.03 29.1273 3.766C29.7273 3.502 30.4053 3.37 31.1613 3.37ZM43.8832 12.442C43.6312 12.658 43.3192 12.826 42.9472 12.946C42.5752 13.054 42.1912 13.108 41.7952 13.108C40.8352 13.108 40.0912 12.85 39.5632 12.334C39.0352 11.818 38.7712 11.08 38.7712 10.12V4.882H37.1512V3.46H38.7712V1.372H40.4992V3.46H43.2352V4.882H40.4992V10.048C40.4992 10.564 40.6252 10.96 40.8772 11.236C41.1412 11.512 41.5132 11.65 41.9932 11.65C42.5212 11.65 42.9712 11.5 43.3432 11.2L43.8832 12.442ZM49.6464 3.37C50.9664 3.37 51.9744 3.694 52.6704 4.342C53.3784 4.99 53.7324 5.956 53.7324 7.24V13H52.0944V11.74C51.8064 12.184 51.3924 12.526 50.8524 12.766C50.3244 12.994 49.6944 13.108 48.9624 13.108C47.8944 13.108 47.0364 12.85 46.3884 12.334C45.7524 11.818 45.4344 11.14 45.4344 10.3C45.4344 9.46 45.7404 8.788 46.3524 8.284C46.9644 7.768 47.9364 7.51 49.2684 7.51H52.0044V7.168C52.0044 6.424 51.7884 5.854 51.3564 5.458C50.9244 5.062 50.2884 4.864 49.4484 4.864C48.8844 4.864 48.3324 4.96 47.7924 5.152C47.2524 5.332 46.7964 5.578 46.4244 5.89L45.7044 4.594C46.1964 4.198 46.7844 3.898 47.4684 3.694C48.1524 3.478 48.8784 3.37 49.6464 3.37ZM49.2504 11.776C49.9104 11.776 50.4804 11.632 50.9604 11.344C51.4404 11.044 51.7884 10.624 52.0044 10.084V8.752H49.3404C47.8764 8.752 47.1444 9.244 47.1444 10.228C47.1444 10.708 47.3304 11.086 47.7024 11.362C48.0744 11.638 48.5904 11.776 49.2504 11.776ZM61.3409 13.108C60.3689 13.108 59.4989 12.898 58.7309 12.478C57.9749 12.058 57.3809 11.482 56.9489 10.75C56.5169 10.006 56.3009 9.166 56.3009 8.23C56.3009 7.294 56.5169 6.46 56.9489 5.728C57.3809 4.984 57.9749 4.408 58.7309 4C59.4989 3.58 60.3689 3.37 61.3409 3.37C62.2049 3.37 62.9729 3.544 63.6449 3.892C64.3289 4.24 64.8569 4.744 65.2289 5.404L63.9149 6.25C63.6149 5.794 63.2429 5.452 62.7989 5.224C62.3549 4.996 61.8629 4.882 61.3229 4.882C60.6989 4.882 60.1349 5.02 59.6309 5.296C59.1389 5.572 58.7489 5.968 58.4609 6.484C58.1849 6.988 58.0469 7.57 58.0469 8.23C58.0469 8.902 58.1849 9.496 58.4609 10.012C58.7489 10.516 59.1389 10.906 59.6309 11.182C60.1349 11.458 60.6989 11.596 61.3229 11.596C61.8629 11.596 62.3549 11.482 62.7989 11.254C63.2429 11.026 63.6149 10.684 63.9149 10.228L65.2289 11.056C64.8569 11.716 64.3289 12.226 63.6449 12.586C62.9729 12.934 62.2049 13.108 61.3409 13.108ZM73.1532 12.442C72.9012 12.658 72.5892 12.826 72.2172 12.946C71.8452 13.054 71.4612 13.108 71.0652 13.108C70.1052 13.108 69.3612 12.85 68.8332 12.334C68.3052 11.818 68.0412 11.08 68.0412 10.12V4.882H66.4212V3.46H68.0412V1.372H69.7692V3.46H72.5052V4.882H69.7692V10.048C69.7692 10.564 69.8952 10.96 70.1472 11.236C70.4112 11.512 70.7832 11.65 71.2632 11.65C71.7912 11.65 72.2412 11.5 72.6132 11.2L73.1532 12.442ZM85.9483 13.144C84.2683 13.144 82.9603 12.664 82.0243 11.704C81.0883 10.744 80.6203 9.364 80.6203 7.564V0.399999H82.4203V7.492C82.4203 10.192 83.6023 11.542 85.9663 11.542C87.1183 11.542 88.0003 11.212 88.6123 10.552C89.2243 9.88 89.5303 8.86 89.5303 7.492V0.399999H91.2763V7.564C91.2763 9.376 90.8083 10.762 89.8723 11.722C88.9363 12.67 87.6283 13.144 85.9483 13.144ZM97.6506 13.108C96.8706 13.108 96.1206 13.006 95.4006 12.802C94.6806 12.586 94.1166 12.316 93.7086 11.992L94.4286 10.624C94.8486 10.924 95.3586 11.164 95.9586 11.344C96.5586 11.524 97.1646 11.614 97.7766 11.614C99.2886 11.614 100.045 11.182 100.045 10.318C100.045 10.03 99.9426 9.802 99.7386 9.634C99.5346 9.466 99.2766 9.346 98.9646 9.274C98.6646 9.19 98.2326 9.1 97.6686 9.004C96.9006 8.884 96.2706 8.746 95.7786 8.59C95.2986 8.434 94.8846 8.17 94.5366 7.798C94.1886 7.426 94.0146 6.904 94.0146 6.232C94.0146 5.368 94.3746 4.678 95.0946 4.162C95.8146 3.634 96.7806 3.37 97.9926 3.37C98.6286 3.37 99.2646 3.448 99.9006 3.604C100.537 3.76 101.059 3.97 101.467 4.234L100.729 5.602C99.9486 5.098 99.0306 4.846 97.9746 4.846C97.2426 4.846 96.6846 4.966 96.3006 5.206C95.9166 5.446 95.7246 5.764 95.7246 6.16C95.7246 6.472 95.8326 6.718 96.0486 6.898C96.2646 7.078 96.5286 7.21 96.8406 7.294C97.1646 7.378 97.6146 7.474 98.1906 7.582C98.9586 7.714 99.5766 7.858 100.045 8.014C100.525 8.158 100.933 8.41 101.269 8.77C101.605 9.13 101.773 9.634 101.773 10.282C101.773 11.146 101.401 11.836 100.657 12.352C99.9246 12.856 98.9226 13.108 97.6506 13.108ZM113.252 13.108C112.304 13.108 111.452 12.898 110.696 12.478C109.94 12.058 109.346 11.482 108.914 10.75C108.494 10.006 108.284 9.166 108.284 8.23C108.284 7.294 108.494 6.46 108.914 5.728C109.346 4.984 109.94 4.408 110.696 4C111.452 3.58 112.304 3.37 113.252 3.37C114.2 3.37 115.046 3.58 115.79 4C116.546 4.408 117.134 4.984 117.554 5.728C117.986 6.46 118.202 7.294 118.202 8.23C118.202 9.166 117.986 10.006 117.554 10.75C117.134 11.482 116.546 12.058 115.79 12.478C115.046 12.898 114.2 13.108 113.252 13.108ZM113.252 11.596C113.864 11.596 114.41 11.458 114.89 11.182C115.382 10.894 115.766 10.498 116.042 9.994C116.318 9.478 116.456 8.89 116.456 8.23C116.456 7.57 116.318 6.988 116.042 6.484C115.766 5.968 115.382 5.572 114.89 5.296C114.41 5.02 113.864 4.882 113.252 4.882C112.64 4.882 112.088 5.02 111.596 5.296C111.116 5.572 110.732 5.968 110.444 6.484C110.168 6.988 110.03 7.57 110.03 8.23C110.03 8.89 110.168 9.478 110.444 9.994C110.732 10.498 111.116 10.894 111.596 11.182C112.088 11.458 112.64 11.596 113.252 11.596ZM125.886 3.37C127.098 3.37 128.058 3.724 128.766 4.432C129.486 5.128 129.846 6.154 129.846 7.51V13H128.118V7.708C128.118 6.784 127.896 6.088 127.452 5.62C127.008 5.152 126.372 4.918 125.544 4.918C124.608 4.918 123.87 5.194 123.33 5.746C122.79 6.286 122.52 7.066 122.52 8.086V13H120.792V3.46H122.448V4.9C122.796 4.408 123.264 4.03 123.852 3.766C124.452 3.502 125.13 3.37 125.886 3.37ZM142.652 13.144C141.656 13.144 140.768 12.892 139.988 12.388C139.22 11.872 138.614 11.128 138.17 10.156C137.726 9.184 137.504 8.032 137.504 6.7C137.504 5.368 137.726 4.216 138.17 3.244C138.614 2.272 139.22 1.534 139.988 1.03C140.768 0.514 141.656 0.256 142.652 0.256C143.636 0.256 144.512 0.514 145.28 1.03C146.06 1.534 146.672 2.272 147.116 3.244C147.56 4.216 147.782 5.368 147.782 6.7C147.782 8.032 147.56 9.184 147.116 10.156C146.672 11.128 146.06 11.872 145.28 12.388C144.512 12.892 143.636 13.144 142.652 13.144ZM142.652 11.542C143.66 11.542 144.464 11.128 145.064 10.3C145.676 9.472 145.982 8.272 145.982 6.7C145.982 5.128 145.676 3.928 145.064 3.1C144.464 2.272 143.66 1.858 142.652 1.858C141.632 1.858 140.816 2.272 140.204 3.1C139.604 3.928 139.304 5.128 139.304 6.7C139.304 8.272 139.604 9.472 140.204 10.3C140.816 11.128 141.632 11.542 142.652 11.542ZM153.563 0.399999V13H151.781V1.966H148.937V0.399999H153.563ZM156.681 7.312H161.523V8.806H156.681V7.312ZM172.237 11.434V13H163.183V11.776L168.313 6.826C168.937 6.226 169.357 5.71 169.573 5.278C169.789 4.834 169.897 4.39 169.897 3.946C169.897 3.286 169.663 2.776 169.195 2.416C168.739 2.044 168.079 1.858 167.215 1.858C165.823 1.858 164.749 2.314 163.993 3.226L162.769 2.164C163.261 1.564 163.903 1.096 164.695 0.76C165.499 0.424 166.393 0.256 167.377 0.256C168.697 0.256 169.747 0.574 170.527 1.21C171.307 1.834 171.697 2.686 171.697 3.766C171.697 4.438 171.553 5.074 171.265 5.674C170.977 6.274 170.431 6.958 169.627 7.726L165.775 11.434H172.237ZM178.741 5.692C179.977 5.812 180.919 6.196 181.567 6.844C182.215 7.48 182.539 8.296 182.539 9.292C182.539 10.012 182.359 10.666 181.999 11.254C181.639 11.83 181.099 12.292 180.379 12.64C179.671 12.976 178.801 13.144 177.769 13.144C176.869 13.144 176.005 13.012 175.177 12.748C174.349 12.472 173.671 12.094 173.143 11.614L173.971 10.192C174.403 10.6 174.955 10.93 175.627 11.182C176.299 11.422 177.013 11.542 177.769 11.542C178.705 11.542 179.431 11.344 179.947 10.948C180.475 10.552 180.739 10.006 180.739 9.31C180.739 8.614 180.481 8.074 179.965 7.69C179.449 7.306 178.669 7.114 177.625 7.114H176.617V5.854L179.785 1.966H173.719V0.399999H182.035V1.624L178.741 5.692ZM189.854 5.35C190.682 5.35 191.42 5.506 192.068 5.818C192.728 6.13 193.244 6.58 193.616 7.168C193.988 7.744 194.174 8.41 194.174 9.166C194.174 9.958 193.976 10.654 193.58 11.254C193.196 11.854 192.662 12.322 191.978 12.658C191.306 12.982 190.55 13.144 189.71 13.144C188.018 13.144 186.71 12.598 185.786 11.506C184.874 10.414 184.418 8.866 184.418 6.862C184.418 5.458 184.664 4.264 185.156 3.28C185.66 2.284 186.356 1.534 187.244 1.03C188.144 0.514 189.188 0.256 190.376 0.256C190.988 0.256 191.564 0.322 192.104 0.454C192.644 0.573999 193.112 0.753999 193.508 0.993999L192.824 2.398C192.224 2.002 191.42 1.804 190.412 1.804C189.104 1.804 188.078 2.212 187.334 3.028C186.59 3.832 186.218 5.008 186.218 6.556C186.218 6.748 186.224 6.898 186.236 7.006C186.596 6.466 187.088 6.058 187.712 5.782C188.348 5.494 189.062 5.35 189.854 5.35ZM189.638 11.686C190.466 11.686 191.138 11.464 191.654 11.02C192.17 10.576 192.428 9.982 192.428 9.238C192.428 8.494 192.164 7.906 191.636 7.474C191.12 7.03 190.424 6.808 189.548 6.808C188.984 6.808 188.48 6.916 188.036 7.132C187.604 7.348 187.262 7.642 187.01 8.014C186.77 8.386 186.65 8.8 186.65 9.256C186.65 9.7 186.764 10.108 186.992 10.48C187.232 10.84 187.574 11.134 188.018 11.362C188.474 11.578 189.014 11.686 189.638 11.686ZM199.813 0.256C201.505 0.256 202.807 0.802 203.719 1.894C204.643 2.986 205.105 4.534 205.105 6.538C205.105 7.942 204.853 9.142 204.349 10.138C203.857 11.122 203.161 11.872 202.261 12.388C201.373 12.892 200.335 13.144 199.147 13.144C198.535 13.144 197.959 13.084 197.419 12.964C196.879 12.832 196.411 12.646 196.015 12.406L196.699 11.002C197.311 11.398 198.121 11.596 199.129 11.596C200.437 11.596 201.457 11.194 202.189 10.39C202.933 9.574 203.305 8.392 203.305 6.844V6.394C202.945 6.934 202.447 7.348 201.811 7.636C201.175 7.912 200.461 8.05 199.669 8.05C198.841 8.05 198.097 7.894 197.437 7.582C196.789 7.27 196.279 6.826 195.907 6.25C195.547 5.662 195.367 4.99 195.367 4.234C195.367 3.442 195.559 2.746 195.943 2.146C196.339 1.546 196.873 1.084 197.545 0.76C198.217 0.424 198.973 0.256 199.813 0.256ZM199.975 6.592C200.539 6.592 201.043 6.484 201.487 6.268C201.931 6.052 202.273 5.758 202.513 5.386C202.765 5.014 202.891 4.6 202.891 4.144C202.891 3.7 202.771 3.298 202.531 2.938C202.303 2.566 201.961 2.272 201.505 2.056C201.061 1.828 200.521 1.714 199.885 1.714C199.057 1.714 198.385 1.936 197.869 2.38C197.365 2.824 197.113 3.418 197.113 4.162C197.113 4.906 197.371 5.5 197.887 5.944C198.403 6.376 199.099 6.592 199.975 6.592ZM212.185 13.144C211.189 13.144 210.301 12.892 209.521 12.388C208.753 11.872 208.147 11.128 207.703 10.156C207.259 9.184 207.037 8.032 207.037 6.7C207.037 5.368 207.259 4.216 207.703 3.244C208.147 2.272 208.753 1.534 209.521 1.03C210.301 0.514 211.189 0.256 212.185 0.256C213.169 0.256 214.045 0.514 214.813 1.03C215.593 1.534 216.205 2.272 216.649 3.244C217.093 4.216 217.315 5.368 217.315 6.7C217.315 8.032 217.093 9.184 216.649 10.156C216.205 11.128 215.593 11.872 214.813 12.388C214.045 12.892 213.169 13.144 212.185 13.144ZM212.185 11.542C213.193 11.542 213.997 11.128 214.597 10.3C215.209 9.472 215.515 8.272 215.515 6.7C215.515 5.128 215.209 3.928 214.597 3.1C213.997 2.272 213.193 1.858 212.185 1.858C211.165 1.858 210.349 2.272 209.737 3.1C209.137 3.928 208.837 5.128 208.837 6.7C208.837 8.272 209.137 9.472 209.737 10.3C210.349 11.128 211.165 11.542 212.185 11.542ZM224.391 13.144C223.395 13.144 222.507 12.892 221.727 12.388C220.959 11.872 220.353 11.128 219.909 10.156C219.465 9.184 219.243 8.032 219.243 6.7C219.243 5.368 219.465 4.216 219.909 3.244C220.353 2.272 220.959 1.534 221.727 1.03C222.507 0.514 223.395 0.256 224.391 0.256C225.375 0.256 226.251 0.514 227.019 1.03C227.799 1.534 228.411 2.272 228.855 3.244C229.299 4.216 229.521 5.368 229.521 6.7C229.521 8.032 229.299 9.184 228.855 10.156C228.411 11.128 227.799 11.872 227.019 12.388C226.251 12.892 225.375 13.144 224.391 13.144ZM224.391 11.542C225.399 11.542 226.203 11.128 226.803 10.3C227.415 9.472 227.721 8.272 227.721 6.7C227.721 5.128 227.415 3.928 226.803 3.1C226.203 2.272 225.399 1.858 224.391 1.858C223.371 1.858 222.555 2.272 221.943 3.1C221.343 3.928 221.043 5.128 221.043 6.7C221.043 8.272 221.343 9.472 221.943 10.3C222.555 11.128 223.371 11.542 224.391 11.542ZM236.596 13.144C235.6 13.144 234.712 12.892 233.932 12.388C233.164 11.872 232.558 11.128 232.114 10.156C231.67 9.184 231.448 8.032 231.448 6.7C231.448 5.368 231.67 4.216 232.114 3.244C232.558 2.272 233.164 1.534 233.932 1.03C234.712 0.514 235.6 0.256 236.596 0.256C237.58 0.256 238.456 0.514 239.224 1.03C240.004 1.534 240.616 2.272 241.06 3.244C241.504 4.216 241.726 5.368 241.726 6.7C241.726 8.032 241.504 9.184 241.06 10.156C240.616 11.128 240.004 11.872 239.224 12.388C238.456 12.892 237.58 13.144 236.596 13.144ZM236.596 11.542C237.604 11.542 238.408 11.128 239.008 10.3C239.62 9.472 239.926 8.272 239.926 6.7C239.926 5.128 239.62 3.928 239.008 3.1C238.408 2.272 237.604 1.858 236.596 1.858C235.576 1.858 234.76 2.272 234.148 3.1C233.548 3.928 233.248 5.128 233.248 6.7C233.248 8.272 233.548 9.472 234.148 10.3C234.76 11.128 235.576 11.542 236.596 11.542ZM244.842 5.836C244.506 5.836 244.218 5.722 243.978 5.494C243.738 5.254 243.618 4.954 243.618 4.594C243.618 4.246 243.738 3.958 243.978 3.73C244.218 3.49 244.506 3.37 244.842 3.37C245.178 3.37 245.46 3.484 245.688 3.712C245.916 3.94 246.03 4.234 246.03 4.594C246.03 4.954 245.91 5.254 245.67 5.494C245.442 5.722 245.166 5.836 244.842 5.836ZM244.86 10.642C245.196 10.642 245.472 10.762 245.688 11.002C245.916 11.23 246.03 11.518 246.03 11.866C246.03 12.046 246.006 12.22 245.958 12.388C245.922 12.556 245.844 12.814 245.724 13.162L244.878 15.664H243.744L244.41 12.982C244.182 12.898 243.996 12.76 243.852 12.568C243.72 12.364 243.654 12.13 243.654 11.866C243.654 11.506 243.768 11.212 243.996 10.984C244.224 10.756 244.512 10.642 244.86 10.642ZM258.114 13.144C257.118 13.144 256.23 12.892 255.45 12.388C254.682 11.872 254.076 11.128 253.632 10.156C253.188 9.184 252.966 8.032 252.966 6.7C252.966 5.368 253.188 4.216 253.632 3.244C254.076 2.272 254.682 1.534 255.45 1.03C256.23 0.514 257.118 0.256 258.114 0.256C259.098 0.256 259.974 0.514 260.742 1.03C261.522 1.534 262.134 2.272 262.578 3.244C263.022 4.216 263.244 5.368 263.244 6.7C263.244 8.032 263.022 9.184 262.578 10.156C262.134 11.128 261.522 11.872 260.742 12.388C259.974 12.892 259.098 13.144 258.114 13.144ZM258.114 11.542C259.122 11.542 259.926 11.128 260.526 10.3C261.138 9.472 261.444 8.272 261.444 6.7C261.444 5.128 261.138 3.928 260.526 3.1C259.926 2.272 259.122 1.858 258.114 1.858C257.094 1.858 256.278 2.272 255.666 3.1C255.066 3.928 254.766 5.128 254.766 6.7C254.766 8.272 255.066 9.472 255.666 10.3C256.278 11.128 257.094 11.542 258.114 11.542ZM269.025 0.399999V13H267.243V1.966H264.399V0.399999H269.025ZM272.144 7.312H276.986V8.806H272.144V7.312ZM284.631 5.35C285.459 5.35 286.197 5.506 286.845 5.818C287.505 6.13 288.021 6.58 288.393 7.168C288.765 7.744 288.951 8.41 288.951 9.166C288.951 9.958 288.753 10.654 288.357 11.254C287.973 11.854 287.439 12.322 286.755 12.658C286.083 12.982 285.327 13.144 284.487 13.144C282.795 13.144 281.487 12.598 280.563 11.506C279.651 10.414 279.195 8.866 279.195 6.862C279.195 5.458 279.441 4.264 279.933 3.28C280.437 2.284 281.133 1.534 282.021 1.03C282.921 0.514 283.965 0.256 285.153 0.256C285.765 0.256 286.341 0.322 286.881 0.454C287.421 0.573999 287.889 0.753999 288.285 0.993999L287.601 2.398C287.001 2.002 286.197 1.804 285.189 1.804C283.881 1.804 282.855 2.212 282.111 3.028C281.367 3.832 280.995 5.008 280.995 6.556C280.995 6.748 281.001 6.898 281.013 7.006C281.373 6.466 281.865 6.058 282.489 5.782C283.125 5.494 283.839 5.35 284.631 5.35ZM284.415 11.686C285.243 11.686 285.915 11.464 286.431 11.02C286.947 10.576 287.205 9.982 287.205 9.238C287.205 8.494 286.941 7.906 286.413 7.474C285.897 7.03 285.201 6.808 284.325 6.808C283.761 6.808 283.257 6.916 282.813 7.132C282.381 7.348 282.039 7.642 281.787 8.014C281.547 8.386 281.427 8.8 281.427 9.256C281.427 9.7 281.541 10.108 281.769 10.48C282.009 10.84 282.351 11.134 282.795 11.362C283.251 11.578 283.791 11.686 284.415 11.686ZM295.329 5.692C296.565 5.812 297.507 6.196 298.155 6.844C298.803 7.48 299.127 8.296 299.127 9.292C299.127 10.012 298.947 10.666 298.587 11.254C298.227 11.83 297.687 12.292 296.967 12.64C296.259 12.976 295.389 13.144 294.357 13.144C293.457 13.144 292.593 13.012 291.765 12.748C290.937 12.472 290.259 12.094 289.731 11.614L290.559 10.192C290.991 10.6 291.543 10.93 292.215 11.182C292.887 11.422 293.601 11.542 294.357 11.542C295.293 11.542 296.019 11.344 296.535 10.948C297.063 10.552 297.327 10.006 297.327 9.31C297.327 8.614 297.069 8.074 296.553 7.69C296.037 7.306 295.257 7.114 294.213 7.114H293.205V5.854L296.373 1.966H290.307V0.399999H298.623V1.624L295.329 5.692ZM306.153 13.144C305.157 13.144 304.269 12.892 303.489 12.388C302.721 11.872 302.115 11.128 301.671 10.156C301.227 9.184 301.005 8.032 301.005 6.7C301.005 5.368 301.227 4.216 301.671 3.244C302.115 2.272 302.721 1.534 303.489 1.03C304.269 0.514 305.157 0.256 306.153 0.256C307.137 0.256 308.013 0.514 308.781 1.03C309.561 1.534 310.173 2.272 310.617 3.244C311.061 4.216 311.283 5.368 311.283 6.7C311.283 8.032 311.061 9.184 310.617 10.156C310.173 11.128 309.561 11.872 308.781 12.388C308.013 12.892 307.137 13.144 306.153 13.144ZM306.153 11.542C307.161 11.542 307.965 11.128 308.565 10.3C309.177 9.472 309.483 8.272 309.483 6.7C309.483 5.128 309.177 3.928 308.565 3.1C307.965 2.272 307.161 1.858 306.153 1.858C305.133 1.858 304.317 2.272 303.705 3.1C303.105 3.928 302.805 5.128 302.805 6.7C302.805 8.272 303.105 9.472 303.705 10.3C304.317 11.128 305.133 11.542 306.153 11.542ZM317.297 0.256C318.989 0.256 320.291 0.802 321.203 1.894C322.127 2.986 322.589 4.534 322.589 6.538C322.589 7.942 322.337 9.142 321.833 10.138C321.341 11.122 320.645 11.872 319.745 12.388C318.857 12.892 317.819 13.144 316.631 13.144C316.019 13.144 315.443 13.084 314.903 12.964C314.363 12.832 313.895 12.646 313.499 12.406L314.183 11.002C314.795 11.398 315.605 11.596 316.613 11.596C317.921 11.596 318.941 11.194 319.673 10.39C320.417 9.574 320.789 8.392 320.789 6.844V6.394C320.429 6.934 319.931 7.348 319.295 7.636C318.659 7.912 317.945 8.05 317.153 8.05C316.325 8.05 315.581 7.894 314.921 7.582C314.273 7.27 313.763 6.826 313.391 6.25C313.031 5.662 312.851 4.99 312.851 4.234C312.851 3.442 313.043 2.746 313.427 2.146C313.823 1.546 314.357 1.084 315.029 0.76C315.701 0.424 316.457 0.256 317.297 0.256ZM317.459 6.592C318.023 6.592 318.527 6.484 318.971 6.268C319.415 6.052 319.757 5.758 319.997 5.386C320.249 5.014 320.375 4.6 320.375 4.144C320.375 3.7 320.255 3.298 320.015 2.938C319.787 2.566 319.445 2.272 318.989 2.056C318.545 1.828 318.005 1.714 317.369 1.714C316.541 1.714 315.869 1.936 315.353 2.38C314.849 2.824 314.597 3.418 314.597 4.162C314.597 4.906 314.855 5.5 315.371 5.944C315.887 6.376 316.583 6.592 317.459 6.592ZM329.669 13.144C328.673 13.144 327.785 12.892 327.005 12.388C326.237 11.872 325.631 11.128 325.187 10.156C324.743 9.184 324.521 8.032 324.521 6.7C324.521 5.368 324.743 4.216 325.187 3.244C325.631 2.272 326.237 1.534 327.005 1.03C327.785 0.514 328.673 0.256 329.669 0.256C330.653 0.256 331.529 0.514 332.297 1.03C333.077 1.534 333.689 2.272 334.133 3.244C334.577 4.216 334.799 5.368 334.799 6.7C334.799 8.032 334.577 9.184 334.133 10.156C333.689 11.128 333.077 11.872 332.297 12.388C331.529 12.892 330.653 13.144 329.669 13.144ZM329.669 11.542C330.677 11.542 331.481 11.128 332.081 10.3C332.693 9.472 332.999 8.272 332.999 6.7C332.999 5.128 332.693 3.928 332.081 3.1C331.481 2.272 330.677 1.858 329.669 1.858C328.649 1.858 327.833 2.272 327.221 3.1C326.621 3.928 326.321 5.128 326.321 6.7C326.321 8.272 326.621 9.472 327.221 10.3C327.833 11.128 328.649 11.542 329.669 11.542ZM341.874 13.144C340.878 13.144 339.99 12.892 339.21 12.388C338.442 11.872 337.836 11.128 337.392 10.156C336.948 9.184 336.726 8.032 336.726 6.7C336.726 5.368 336.948 4.216 337.392 3.244C337.836 2.272 338.442 1.534 339.21 1.03C339.99 0.514 340.878 0.256 341.874 0.256C342.858 0.256 343.734 0.514 344.502 1.03C345.282 1.534 345.894 2.272 346.338 3.244C346.782 4.216 347.004 5.368 347.004 6.7C347.004 8.032 346.782 9.184 346.338 10.156C345.894 11.128 345.282 11.872 344.502 12.388C343.734 12.892 342.858 13.144 341.874 13.144ZM341.874 11.542C342.882 11.542 343.686 11.128 344.286 10.3C344.898 9.472 345.204 8.272 345.204 6.7C345.204 5.128 344.898 3.928 344.286 3.1C343.686 2.272 342.882 1.858 341.874 1.858C340.854 1.858 340.038 2.272 339.426 3.1C338.826 3.928 338.526 5.128 338.526 6.7C338.526 8.272 338.826 9.472 339.426 10.3C340.038 11.128 340.854 11.542 341.874 11.542ZM354.08 13.144C353.084 13.144 352.196 12.892 351.416 12.388C350.648 11.872 350.042 11.128 349.598 10.156C349.154 9.184 348.932 8.032 348.932 6.7C348.932 5.368 349.154 4.216 349.598 3.244C350.042 2.272 350.648 1.534 351.416 1.03C352.196 0.514 353.084 0.256 354.08 0.256C355.064 0.256 355.94 0.514 356.708 1.03C357.488 1.534 358.1 2.272 358.544 3.244C358.988 4.216 359.21 5.368 359.21 6.7C359.21 8.032 358.988 9.184 358.544 10.156C358.1 11.128 357.488 11.872 356.708 12.388C355.94 12.892 355.064 13.144 354.08 13.144ZM354.08 11.542C355.088 11.542 355.892 11.128 356.492 10.3C357.104 9.472 357.41 8.272 357.41 6.7C357.41 5.128 357.104 3.928 356.492 3.1C355.892 2.272 355.088 1.858 354.08 1.858C353.06 1.858 352.244 2.272 351.632 3.1C351.032 3.928 350.732 5.128 350.732 6.7C350.732 8.272 351.032 9.472 351.632 10.3C352.244 11.128 353.06 11.542 354.08 11.542Z" fill="#F9F9FA"/>
</svg>
