<svg width="21" height="19" viewBox="0 0 21 19" fill="none" xmlns="http://www.w3.org/2000/svg">
<path d="M4.36894 2.10007C4.36867 2.65703 4.14715 3.19106 3.75313 3.58469C3.35911 3.97832 2.82485 4.1993 2.26789 4.19902C1.71094 4.19875 1.17691 3.97723 0.783279 3.58321C0.389649 3.18918 0.168667 2.65493 0.168946 2.09797C0.169224 1.54102 0.39074 1.00699 0.784764 0.613357C1.17879 0.219728 1.71304 -0.00125478 2.26999 -0.0009763C2.82695 -0.000697823 3.36098 0.220819 3.75461 0.614842C4.14824 1.00886 4.36923 1.54312 4.36894 2.10007ZM4.43194 5.75407H0.231946V18.9H4.43194V5.75407ZM11.0679 5.75407H6.88894V18.9H11.0259V12.0015C11.0259 8.15857 16.0344 7.80157 16.0344 12.0015V18.9H20.1819V10.5735C20.1819 4.09507 12.7689 4.33657 11.0259 7.51807L11.0679 5.75407Z" fill="white"/>
</svg>
