<svg width="22" height="19" viewBox="0 0 22 19" fill="none" xmlns="http://www.w3.org/2000/svg">
<path d="M21.4021 2.78848C20.6006 3.14306 19.7505 3.37593 18.8801 3.47938C19.7975 2.93068 20.4841 2.06714 20.812 1.04968C19.951 1.56208 19.0071 1.92118 18.0233 2.11543C17.3624 1.40834 16.4865 0.93939 15.5316 0.781492C14.5767 0.623596 13.5963 0.785595 12.7431 1.2423C11.8898 1.69901 11.2113 2.42485 10.813 3.30696C10.4148 4.18908 10.3191 5.17805 10.5409 6.12013C8.79491 6.03261 7.0868 5.57888 5.5275 4.78837C3.9682 3.99787 2.59259 2.88827 1.48995 1.53163C1.09965 2.202 0.894553 2.96406 0.89565 3.73978C0.89565 5.26228 1.67055 6.60733 2.84865 7.39483C2.15146 7.37288 1.46961 7.1846 0.85995 6.84568V6.90028C0.860161 7.91427 1.21104 8.89697 1.85309 9.6818C2.49515 10.4666 3.38885 11.0052 4.3827 11.2063C3.7355 11.3818 3.05688 11.4076 2.3982 11.2819C2.67841 12.1548 3.22456 12.918 3.96017 13.465C4.69579 14.0119 5.58404 14.3151 6.50055 14.3322C5.58965 15.0476 4.54669 15.5764 3.43127 15.8885C2.31586 16.2005 1.14989 16.2897 0 16.1508C2.00728 17.4417 4.34395 18.1271 6.7305 18.1248C14.8081 18.1248 19.2255 11.4331 19.2255 5.62978C19.2255 5.44078 19.2202 5.24968 19.2118 5.06278C20.0717 4.44135 20.8137 3.67155 21.4032 2.78953L21.4021 2.78848Z" fill="white"/>
</svg>
